<svg xmlns="http://www.w3.org/2000/svg" viewBox="0 0 321.09 353.86"><defs><style>.cls-1{fill:#535353;}</style></defs><g id="圖層_2" data-name="圖層 2"><g id="圖層_2-2" data-name="圖層 2"><path class="cls-1" d="M55.09,312.91a6.34,6.34,0,0,1-3.05-.77c-24.35-13-41-35-48.2-63.56A123.05,123.05,0,0,1,.35,209.13a6.5,6.5,0,0,1,12.92,1.39,112.45,112.45,0,0,0,3.28,35.31C23,270.89,37,289.35,58.16,300.68a6.5,6.5,0,0,1-3.07,12.23Z"/><path class="cls-1" d="M230.75,353.86q-3.51,0-7.18-.31a6.5,6.5,0,0,1,1.09-12.95c20,1.67,37.87-5,53.12-19.79,12.81-12.43,21-27.77,25.58-38.45A55.7,55.7,0,0,0,307.82,264c3.05-45.71-20.14-69.31-40.13-81.06a27.72,27.72,0,0,1,3.15-49.38,139.15,139.15,0,0,1,14.45-5l.35-.1c8.1-2.57,13.26-6.48,15.34-11.61,3.21-7.93-1.49-17-1.53-17.1l-.16-.3c-2-4.24-4.31-6.63-6.83-7.08-4.37-.79-10,3.57-11.63,5.15l-.4.36c-16.48,13.72-28,18.65-36.33,15.5a12.26,12.26,0,0,1-7.77-9.35l0-.13c-1.86-14-8.69-25-19.75-31.91C203,63.58,186.5,63.19,176.9,66.4c-51.44,17.23-38.54,72.6-38,74.94a6.5,6.5,0,0,1-12.62,3.13,96.29,96.29,0,0,1-.7-36.79c3.33-18.37,14.22-42.58,47.17-53.61,12.8-4.29,33.43-3.81,50.66,6.93,9.94,6.21,22.39,18.22,25.63,40.31,1.47.07,7.69-.64,22.85-13.22,1.89-1.81,11.61-10.44,22.76-8.49,4.74.83,11.42,4,16.3,14.2.93,1.8,7.3,15,2,28-3.59,8.89-11.5,15.32-23.49,19.13l-.56.17a124.24,124.24,0,0,0-13.05,4.46,14.71,14.71,0,0,0-1.65,26.21c18.94,11.14,50.18,38,46.51,93.14a68.65,68.65,0,0,1-5.49,22.63C306.49,308,281.09,353.85,230.75,353.86Z"/><path class="cls-1" d="M146.26,262.63c-18.71,0-31.65-15.82-32.25-16.57a6.5,6.5,0,0,1,4.8-10.57c16.67-.69,23.84-19.55,23.91-19.74a6.5,6.5,0,0,1,12.19,4.51c-.33.89-6.74,17.74-22.21,25,4.66,2.94,10.87,5.35,17.68,4A6.5,6.5,0,1,1,153,262,33.6,33.6,0,0,1,146.26,262.63Z"/><path class="cls-1" d="M181.93,310.54h-1.36c-35.58-.62-58.66-25.41-59.63-26.46a6.5,6.5,0,0,1,3.71-10.8c23.41-3.95,29.86-28.36,29.93-28.61a6.5,6.5,0,0,1,12.6,3.2c-.3,1.15-6.5,24.6-28.33,34.57,8.65,6.4,23.52,14.83,42.1,15.1,21.82.34,43.62-10.45,64.79-32a6.5,6.5,0,0,1,9.28,9.1C231.62,298.45,207,310.54,181.93,310.54Z"/><path class="cls-1" d="M54.92,175.36a51.82,51.82,0,0,1-19.59-3.82,6.5,6.5,0,1,1,4.9-12A39,39,0,1,0,19,138.67a6.5,6.5,0,1,1-11.95,5.12,52,52,0,1,1,47.85,31.57Z"/><path class="cls-1" d="M71.2,128.86H38.58a6.5,6.5,0,1,1,0-13H71.2a6.5,6.5,0,0,1,0,13Z"/><path class="cls-1" d="M54.89,145.16a6.5,6.5,0,0,1-6.5-6.5V106.05a6.5,6.5,0,0,1,13,0v32.61A6.5,6.5,0,0,1,54.89,145.16Z"/><circle class="cls-1" cx="197.22" cy="114.73" r="11.23"/><circle class="cls-1" cx="90.05" cy="321.13" r="11.23"/><path class="cls-1" d="M139.52,52.64a6.5,6.5,0,0,1-1.66-12.78c17.93-4.76,17.91-33,17.91-33.31A6.5,6.5,0,0,1,162.22,0h.05a6.5,6.5,0,0,1,6.5,6.45,71.7,71.7,0,0,1-3,19.49c-4.37,14.22-12.86,23.38-24.54,26.48A6.46,6.46,0,0,1,139.52,52.64Z"/></g></g></svg>