<svg width="94" height="14" viewBox="0 0 94 14" fill="none" xmlns="http://www.w3.org/2000/svg">
<path fill-rule="evenodd" clip-rule="evenodd" d="M48.4599 8.62998L50.7699 -1.95317e-05V-0.0200195H47.4099L44.9699 9.06998C44.8399 9.55998 44.7399 9.88998 44.6699 10.06C44.6099 10.23 44.4899 10.37 44.3199 10.49C44.1499 10.61 43.9499 10.67 43.7099 10.67C43.6199 10.67 43.4799 10.67 43.2799 10.65L42.6799 12.91H44.3599C45.1099 12.91 45.6799 12.85 46.0799 12.74C46.4799 12.62 46.8199 12.42 47.1199 12.12C47.4099 11.82 47.6199 11.49 47.7499 11.12C47.8799 10.75 48.1099 9.91998 48.4599 8.62998ZM9.38991 12.92L10.9299 0H6.06991L0.909912 12.92H4.37991L5.19991 10.6H6.39991L5.95991 12.92H9.38991ZM7.85991 2.88C7.45991 5.04 7.13991 6.85 6.91991 8.31H5.75991C6.14991 7.16 6.84991 5.35 7.85991 2.88ZM15.7299 3.06L16.5499 0H16.5299H13.3099L9.84991 12.92H12.8699L13.2899 12.12C13.4699 12.45 13.7099 12.69 13.9899 12.86C14.2699 13.03 14.5999 13.11 14.9799 13.11C15.5099 13.11 15.9999 12.97 16.4599 12.69C16.9199 12.41 17.2499 12.08 17.4599 11.7C17.6599 11.32 17.8699 10.74 18.0799 9.96L19.3599 5.19C19.5699 4.41 19.6899 3.9 19.7199 3.66C19.7499 3.42 19.7099 3.18 19.6099 2.93C19.4999 2.68 19.3099 2.49 19.0199 2.35C18.7399 2.21 18.3699 2.14 17.9299 2.14C17.5399 2.14 17.1699 2.22 16.7999 2.37C16.4399 2.52 16.0799 2.75 15.7299 3.06ZM16.2799 4.27C16.3099 4.43 16.2499 4.79 16.0999 5.34H16.1099L14.9099 9.8C14.7399 10.43 14.6099 10.82 14.4999 10.99C14.3999 11.16 14.2399 11.24 14.0399 11.24C13.8399 11.24 13.7299 11.16 13.7099 11C13.6799 10.84 13.7499 10.48 13.8999 9.91L15.1199 5.35C15.2699 4.75 15.3999 4.39 15.4999 4.24C15.5899 4.09 15.7399 4.02 15.9399 4.02C16.1399 4.02 16.2599 4.1 16.2799 4.27ZM27.4899 6.04989L26.7999 8.63989C26.5399 9.58989 26.3099 10.2899 26.0999 10.7299C25.8899 11.1699 25.5699 11.5899 25.1499 11.9799C24.7299 12.3699 24.2499 12.6499 23.7099 12.8299C23.1699 13.0099 22.5799 13.1099 21.9399 13.1099C21.2299 13.1099 20.6399 13.0299 20.1899 12.8699C19.7399 12.7099 19.4199 12.4799 19.2299 12.1599C19.0399 11.8399 18.9499 11.4599 18.9499 11.0099C18.9499 10.5599 19.0799 9.88989 19.3199 8.98989L20.0499 6.27989C20.3099 5.29989 20.6299 4.52989 20.9899 3.96989C21.3499 3.41989 21.8499 2.96989 22.4999 2.63989C23.1399 2.30989 23.8999 2.13989 24.7599 2.13989C25.4799 2.13989 26.0799 2.24989 26.5399 2.45989C26.9999 2.66989 27.3299 2.95989 27.5199 3.29989C27.7099 3.63989 27.8099 3.99989 27.8099 4.36989C27.8099 4.73989 27.7199 5.28989 27.5199 6.04989H27.4899ZM24.4799 5.24989C24.6299 4.70989 24.6899 4.36989 24.6699 4.21989C24.6499 4.07989 24.5399 4.00989 24.3499 4.00989C24.1599 4.00989 24.0099 4.07989 23.9099 4.21989C23.8099 4.35989 23.6899 4.69989 23.5399 5.24989L22.2599 10.0299C22.1299 10.5299 22.0699 10.8599 22.0899 11.0099C22.1099 11.1599 22.2199 11.2399 22.3999 11.2399C22.5799 11.2399 22.7399 11.1699 22.8399 11.0299C22.9399 10.8899 23.0499 10.5899 23.1699 10.1399L24.4799 5.25989V5.24989ZM34.0899 12.9201L36.9299 2.33008H36.9099H33.6899L31.7799 9.46008C31.5499 10.3301 31.3899 10.8401 31.2999 11.0001C31.2099 11.1601 31.0499 11.2401 30.8099 11.2401C30.5899 11.2401 30.4599 11.1601 30.4599 11.0101C30.4499 10.8501 30.5599 10.3601 30.7799 9.54008L32.7099 2.33008H29.4899L27.5799 9.47008C27.3399 10.3801 27.1999 10.9801 27.1499 11.2901C27.1099 11.5901 27.1199 11.8901 27.1999 12.1701C27.2699 12.4501 27.4499 12.6801 27.7199 12.8501C27.9999 13.0301 28.3799 13.1101 28.8599 13.1101C29.2799 13.1101 29.6799 13.0201 30.0599 12.8401C30.4299 12.6601 30.7799 12.4001 31.0999 12.0401L30.8099 12.9201H34.0899ZM41.8599 0.919922L41.4099 2.58992H42.2799L41.8299 4.26992H40.9599L39.4399 9.93992C39.2499 10.6399 39.1899 11.0199 39.2299 11.1099C39.2799 11.1899 39.5699 11.2299 40.0999 11.2299L39.6399 12.9399H38.3399C37.6099 12.9399 37.0899 12.9099 36.7899 12.8499C36.4899 12.7899 36.2499 12.6499 36.0699 12.4299C35.8899 12.2099 35.8099 11.9599 35.8299 11.6699C35.8499 11.3799 35.9999 10.7199 36.2799 9.65992L37.7199 4.27992H37.0299L37.4799 2.59992H38.1699L38.6199 0.929922H41.8499L41.8599 0.919922ZM54.6699 2.33L51.8299 12.92H48.5099L51.3499 2.33H54.6699ZM55.2899 0L54.8399 1.68H51.5199L51.9699 0H55.2899ZM54.5899 6.42988H57.6099V6.41988L57.9099 5.30988C58.0599 4.71988 58.1899 4.34988 58.2799 4.20988C58.3699 4.06988 58.5199 3.99988 58.7399 3.99988C58.9299 3.99988 59.0399 4.07988 59.0799 4.24988C59.1099 4.41988 59.0599 4.77988 58.9099 5.32988C58.7899 5.76988 58.6699 6.06988 58.5599 6.20988C58.4499 6.35988 57.8099 6.62988 56.6399 7.04988C55.5499 7.43988 54.8399 7.76988 54.5099 8.05988C54.1799 8.34988 53.9099 8.88988 53.6999 9.67988L53.4699 10.5499C53.1799 11.6199 53.2299 12.3099 53.6199 12.6299C54.0099 12.9399 54.4899 13.0999 55.0499 13.0999C55.4799 13.0999 55.8799 13.0099 56.2399 12.8199C56.5999 12.6299 56.9299 12.3499 57.2299 11.9699L56.9799 12.9099H60.1199L61.5399 7.59988C62.0099 5.84988 62.2599 4.68988 62.2999 4.12988C62.3399 3.56988 62.1299 3.09988 61.6799 2.70988C61.2299 2.31988 60.4599 2.12988 59.3699 2.12988C58.4699 2.12988 57.6799 2.29988 57.0199 2.63988C56.3599 2.97988 55.8799 3.37988 55.5699 3.81988C55.2599 4.26988 54.9999 4.89988 54.7799 5.71988L54.5899 6.42988ZM58.228 7.88721C57.615 8.26387 57.2389 8.57156 57.0899 8.82988C56.9399 9.08988 56.7999 9.44988 56.6699 9.92988C56.5199 10.4799 56.4599 10.8299 56.4899 10.9899C56.5199 11.1499 56.6399 11.2299 56.8499 11.2299C57.0499 11.2299 57.1999 11.1699 57.2899 11.0399C57.3799 10.9199 57.4999 10.5899 57.6499 10.0599L58.228 7.88721ZM67.3399 2.32989L67.3366 2.33989H64.0599L61.2199 12.9299H64.4399L66.3599 5.76989C66.5699 4.96989 66.7299 4.47989 66.8399 4.29989C66.9499 4.10989 67.1199 4.01989 67.3499 4.01989C67.5599 4.01989 67.6799 4.09989 67.6799 4.25989C67.6799 4.41989 67.5899 4.85989 67.3899 5.58989L65.4299 12.9199H68.6499L70.6399 5.49989C70.8899 4.57989 71.0199 3.91989 71.0199 3.51989C71.0299 3.11989 70.8899 2.78989 70.6099 2.52989C70.3299 2.26989 69.9099 2.13989 69.3599 2.13989C68.9199 2.13989 68.4999 2.23989 68.1099 2.42989C67.7199 2.62989 67.3599 2.91989 67.0199 3.30989L67.3366 2.33989H67.3399V2.32989ZM75.8263 2.33989L75.8299 2.32989L75.8399 2.33989H75.8263ZM75.8263 2.33989L75.3299 3.71989C76.0699 2.71989 76.8899 2.18989 77.7899 2.13989L76.7899 5.86989C76.1999 5.86989 75.7499 5.94989 75.4299 6.10989C75.1099 6.26989 74.8799 6.48989 74.7399 6.77989C74.5999 7.06989 74.3899 7.71989 74.1199 8.74989L72.9999 12.9299H69.7799L72.6199 2.33989H75.8263ZM84.2899 7.81012H80.1199L79.5099 10.1001C79.3799 10.5801 79.3299 10.8901 79.3699 11.0201C79.3999 11.1601 79.5199 11.2301 79.7099 11.2301C79.9599 11.2301 80.1399 11.1401 80.2699 10.9501C80.3999 10.7701 80.5399 10.4101 80.6799 9.88012L81.0499 8.48012H84.1099L83.8999 9.26012C83.7299 9.91012 83.5499 10.4201 83.3699 10.7701C83.1899 11.1201 82.8999 11.5001 82.4899 11.8901C82.0799 12.2901 81.6099 12.5901 81.0999 12.7901C80.5799 12.9901 79.9699 13.0901 79.2699 13.0901C78.5699 13.0901 78.0099 12.9901 77.5499 12.8001C77.0799 12.6001 76.7499 12.3301 76.5499 11.9901C76.3499 11.6501 76.2499 11.2701 76.2499 10.8601C76.2499 10.4501 76.3499 9.85012 76.5599 9.06012L77.3899 5.97012C77.6399 5.05012 77.9599 4.31012 78.3499 3.78012C78.7399 3.25012 79.2599 2.84012 79.9099 2.55012C80.5499 2.26012 81.2499 2.12012 81.9899 2.12012C82.8899 2.12012 83.5899 2.29012 84.0899 2.64012C84.5899 2.98012 84.8799 3.44012 84.9599 4.00012C85.0499 4.57012 84.9599 5.36012 84.6799 6.39012L84.2999 7.79012L84.2899 7.81012ZM81.5199 6.09012L81.7299 5.32012C81.8799 4.77012 81.9399 4.42012 81.9299 4.26012C81.9099 4.10012 81.8199 4.02012 81.6299 4.02012C81.4099 4.02012 81.2499 4.09012 81.1599 4.22012C81.0699 4.35012 80.9499 4.72012 80.7899 5.32012L80.5799 6.09012H81.5199ZM90.0866 2.33989L90.0899 2.32989V2.33989H90.0866ZM90.0866 2.33989H86.8099L83.9699 12.9299H87.1899L89.1099 5.76989C89.3199 4.96989 89.4799 4.47989 89.5899 4.29989C89.6999 4.10989 89.8699 4.01989 90.0999 4.01989C90.3099 4.01989 90.4299 4.09989 90.4299 4.25989C90.4299 4.41989 90.3399 4.85989 90.1399 5.58989L88.1799 12.9199H91.3999L93.3899 5.49989C93.6399 4.57989 93.7699 3.91989 93.7699 3.51989C93.7799 3.11989 93.6399 2.78989 93.3599 2.52989C93.0799 2.26989 92.6599 2.13989 92.1099 2.13989C91.6699 2.13989 91.2499 2.23989 90.8599 2.42989C90.4699 2.62989 90.1099 2.91989 89.7699 3.30989L90.0866 2.33989Z" fill="url(#paint0_linear_1729_2916)"/>
<defs>
<linearGradient id="paint0_linear_1729_2916" x1="80.4999" y1="7" x2="75.4421" y2="-12.8368" gradientUnits="userSpaceOnUse">
<stop stop-color="#434054"/>
<stop offset="0.482007" stop-color="#777390"/>
<stop offset="0.883058" stop-color="#CBA6AF"/>
</linearGradient>
</defs>
</svg>
