<svg width="100" height="15" viewBox="0 0 100 15" fill="none" xmlns="http://www.w3.org/2000/svg">
<path fill-rule="evenodd" clip-rule="evenodd" d="M5.97 0H3.46L0 12.92H4.22C5.02 12.92 5.64 12.88 6.06 12.79C6.48 12.7 6.86 12.55 7.19 12.33C7.52 12.11 7.8 11.8 8.01 11.41C8.23 11.01 8.49 10.24 8.8 9.08L10.01 4.56C10.34 3.34 10.52 2.52 10.56 2.1C10.6 1.68 10.52 1.3 10.31 0.96C10.1 0.61 9.73 0.37 9.2 0.22C8.67 0.07 7.59 0 5.97 0ZM6.22732 2.22001L3.95 10.71C4.43 10.71 4.76 10.61 4.92 10.42C5.08 10.23 5.28 9.7 5.51 8.84L6.85 3.82C7.01 3.24 7.09 2.86 7.1 2.7C7.11 2.54 7.05 2.41 6.94 2.34C6.83073 2.26053 6.59317 2.22053 6.22732 2.22001ZM13.44 7.81H17.61L17.99 6.41C18.28 5.38 18.37 4.59 18.28 4.02C18.2 3.45 17.91 2.99 17.41 2.65C16.91 2.31 16.21 2.14 15.31 2.14C14.57 2.14 13.88 2.29 13.23 2.57C12.58 2.86 12.06 3.26 11.67 3.8C11.28 4.33 10.96 5.06 10.71 5.99L9.88 9.08C9.67 9.87 9.57 10.47 9.57 10.88C9.57 11.29 9.67 11.67 9.87 12.01C10.07 12.35 10.41 12.62 10.87 12.82C11.33 13.02 11.89 13.12 12.59 13.12C13.29 13.12 13.9 13.02 14.42 12.82C14.94 12.62 15.4 12.32 15.81 11.92C16.22 11.52 16.51 11.14 16.69 10.79C16.87 10.44 17.04 9.93 17.22 9.28L17.43 8.5H14.37L14 9.9C13.86 10.42 13.72 10.78 13.59 10.96C13.46 11.15 13.28 11.24 13.03 11.24C12.84 11.24 12.72 11.17 12.69 11.03C12.65 10.89 12.7 10.58 12.83 10.1L13.44 7.81ZM15.05 5.32L14.84 6.09H13.9L14.11 5.32C14.27 4.72 14.39 4.36 14.48 4.22C14.57 4.09 14.73 4.02 14.95 4.02C15.14 4.02 15.23 4.1 15.25 4.26C15.26 4.42 15.2 4.77 15.05 5.32ZM25.81 5.71H22.95L23.1 5.14C23.23 4.65 23.29 4.34 23.27 4.21C23.25 4.08 23.13 4.01 22.9 4.01C22.72 4.01 22.57 4.07 22.45 4.19C22.33 4.31 22.23 4.49 22.17 4.73C22.08 5.05 22.04 5.29 22.05 5.44C22.05 5.59 22.15 5.76 22.32 5.94C22.49 6.12 22.89 6.38 23.5 6.73C24.31 7.19 24.81 7.62 25 8.02C25.18 8.43 25.17 9.01 24.97 9.78C24.74 10.64 24.45 11.29 24.11 11.73C23.77 12.17 23.3 12.51 22.72 12.74C22.13 12.98 21.47 13.1 20.73 13.1C19.91 13.1 19.24 12.97 18.73 12.72C18.22 12.47 17.91 12.12 17.81 11.68C17.71 11.24 17.78 10.58 18.01 9.7L18.15 9.19H21.01L20.83 9.86C20.68 10.43 20.61 10.8 20.64 10.97C20.67 11.14 20.79 11.22 21 11.22C21.23 11.22 21.4 11.16 21.52 11.05C21.64 10.94 21.75 10.69 21.85 10.33C21.99 9.82 22.01 9.51 21.93 9.38C21.84 9.25 21.32 8.87 20.36 8.25C19.56 7.72 19.11 7.23 19.02 6.8C18.93 6.37 18.96 5.85 19.12 5.26C19.35 4.41 19.63 3.79 19.96 3.39C20.29 2.99 20.75 2.68 21.35 2.46C21.94 2.24 22.59 2.13 23.3 2.13C24.01 2.13 24.57 2.22 25.02 2.4C25.46 2.58 25.78 2.81 25.96 3.11C26.15 3.4 26.23 3.67 26.22 3.92C26.21 4.17 26.13 4.56 25.99 5.09L25.83 5.7L25.81 5.71ZM28.3 12.92L31.14 2.33H27.82L24.98 12.92H28.3ZM31.31 1.68L31.76 0H28.44L27.99 1.68H31.31ZM39.62 2.33L37.43 10.48C37.14 11.58 36.92 12.29 36.78 12.61C36.64 12.93 36.37 13.27 35.97 13.63C35.57 13.99 35.06 14.26 34.46 14.45C33.86 14.64 33.14 14.73 32.3 14.73C31.27 14.73 30.5 14.56 29.97 14.21C29.44 13.86 29.3 13.18 29.55 12.16H32.68C32.55 12.63 32.66 12.86 33 12.86C33.25 12.86 33.43 12.79 33.54 12.65C33.66 12.51 33.78 12.2 33.9 11.75L34.11 10.95C33.77 11.2 33.42 11.39 33.08 11.52C32.74 11.65 32.4 11.71 32.07 11.71C31.49 11.71 31.04 11.59 30.73 11.36C30.42 11.13 30.24 10.82 30.21 10.44C30.17 10.06 30.25 9.52 30.44 8.82L31.47 4.97C31.74 3.96 32.11 3.24 32.59 2.8C33.07 2.36 33.68 2.14 34.42 2.14C34.82 2.14 35.17 2.22 35.46 2.39C35.75 2.56 35.98 2.8 36.15 3.13L36.6 2.33H39.6H39.62ZM35.64 5.14C35.77 4.66 35.82 4.35 35.8 4.21C35.78 4.08 35.67 4.01 35.48 4.01C35.29 4.01 35.14 4.09 35.02 4.24C34.9 4.39 34.78 4.69 34.66 5.14L33.71 8.7C33.58 9.17 33.53 9.48 33.55 9.62C33.57 9.76 33.67 9.83 33.86 9.83C34.07 9.83 34.23 9.75 34.34 9.58C34.45 9.41 34.59 9.02 34.75 8.42L35.63 5.14H35.64ZM44.0467 2.34L44.05 2.33L44.06 2.34H44.0467ZM44.0467 2.34L43.73 3.31C44.07 2.92 44.43 2.63 44.82 2.43C45.21 2.23 45.63 2.14 46.07 2.14C46.62 2.14 47.04 2.27 47.32 2.53C47.6 2.79 47.74 3.12 47.74 3.52C47.74 3.92 47.61 4.58 47.36 5.5L45.37 12.92H42.15L44.11 5.59C44.31 4.86 44.4 4.42 44.39 4.26C44.39 4.1 44.27 4.02 44.06 4.02C43.83 4.02 43.66 4.11 43.56 4.3C43.45 4.48 43.29 4.97 43.08 5.77L41.16 12.93H37.94L40.78 2.34H44.0467ZM57.88 5.71H55.02L55.17 5.14C55.3 4.65 55.36 4.34 55.34 4.21C55.32 4.08 55.2 4.01 54.97 4.01C54.79 4.01 54.64 4.07 54.52 4.19C54.4 4.31 54.3 4.49 54.24 4.73C54.15 5.05 54.11 5.29 54.12 5.44C54.12 5.59 54.22 5.76 54.39 5.94C54.56 6.12 54.96 6.38 55.57 6.73C56.38 7.19 56.88 7.62 57.07 8.02C57.25 8.43 57.24 9.01 57.04 9.78C56.81 10.64 56.52 11.29 56.18 11.73C55.84 12.17 55.37 12.51 54.79 12.74C54.2 12.98 53.54 13.1 52.8 13.1C51.98 13.1 51.31 12.97 50.8 12.72C50.29 12.47 49.98 12.12 49.88 11.68C49.78 11.24 49.85 10.58 50.08 9.7L50.22 9.19H53.08L52.9 9.86C52.75 10.43 52.68 10.8 52.71 10.97C52.74 11.14 52.86 11.22 53.07 11.22C53.3 11.22 53.47 11.16 53.59 11.05C53.71 10.94 53.82 10.69 53.92 10.33C54.06 9.82 54.08 9.51 54 9.38C53.91 9.25 53.39 8.87 52.43 8.25C51.63 7.72 51.18 7.23 51.09 6.8C51 6.37 51.03 5.85 51.19 5.26C51.42 4.41 51.7 3.79 52.03 3.39C52.36 2.99 52.82 2.68 53.42 2.46C54.01 2.24 54.66 2.13 55.37 2.13C56.08 2.13 56.64 2.22 57.09 2.4C57.53 2.58 57.85 2.81 58.03 3.11C58.22 3.4 58.3 3.67 58.29 3.92C58.28 4.17 58.2 4.56 58.06 5.09L57.9 5.7L57.88 5.71ZM63.67 9.99L66.64 2.33L66.66 2.31H63.74L61.31 9.46L62.17 2.31H59.24L58.63 11.17C58.59 11.82 58.55 12.2 58.53 12.28C58.48 12.46 58.38 12.57 58.22 12.62C58.06 12.67 57.73 12.7 57.23 12.7L56.78 14.39H58.73C59.63 14.39 60.3 14.33 60.74 14.19C61.18 14.06 61.55 13.85 61.86 13.56C62.16 13.28 62.42 12.91 62.64 12.47C62.86 12.03 63.2 11.2 63.67 9.99ZM72.89 5.71H70.03L70.18 5.14C70.31 4.65 70.37 4.34 70.35 4.21C70.33 4.08 70.21 4.01 69.98 4.01C69.8 4.01 69.65 4.07 69.53 4.19C69.41 4.31 69.31 4.49 69.25 4.73C69.16 5.05 69.12 5.29 69.13 5.44C69.13 5.59 69.23 5.76 69.4 5.94C69.57 6.12 69.97 6.38 70.58 6.73C71.39 7.19 71.89 7.62 72.08 8.02C72.26 8.43 72.25 9.01 72.05 9.78C71.82 10.64 71.53 11.29 71.19 11.73C70.85 12.17 70.38 12.51 69.8 12.74C69.21 12.98 68.55 13.1 67.81 13.1C66.99 13.1 66.32 12.97 65.81 12.72C65.3 12.47 64.99 12.12 64.89 11.68C64.79 11.24 64.86 10.58 65.09 9.7L65.23 9.19H68.09L67.91 9.86C67.76 10.43 67.69 10.8 67.72 10.97C67.75 11.14 67.87 11.22 68.08 11.22C68.31 11.22 68.48 11.16 68.6 11.05C68.72 10.94 68.83 10.69 68.93 10.33C69.07 9.82 69.09 9.51 69.01 9.38C68.92 9.25 68.4 8.87 67.44 8.25C66.64 7.72 66.19 7.23 66.1 6.8C66.01 6.37 66.04 5.85 66.2 5.26C66.43 4.41 66.71 3.79 67.04 3.39C67.37 2.99 67.83 2.68 68.43 2.46C69.02 2.24 69.67 2.13 70.38 2.13C71.09 2.13 71.65 2.22 72.1 2.4C72.54 2.58 72.86 2.81 73.04 3.11C73.23 3.4 73.31 3.67 73.3 3.92C73.29 4.17 73.21 4.56 73.07 5.09L72.91 5.7L72.89 5.71ZM78.6873 0.93L78.69 0.92V0.93H78.6873ZM78.6873 0.93L78.24 2.59H79.11L78.66 4.27H77.79L76.27 9.94C76.08 10.64 76.02 11.02 76.07 11.11C76.12 11.19 76.41 11.23 76.94 11.23L76.48 12.94H75.18C74.45 12.94 73.93 12.91 73.63 12.85C73.33 12.79 73.09 12.65 72.91 12.43C72.73 12.21 72.65 11.96 72.67 11.67C72.69 11.39 72.84 10.72 73.12 9.66L74.56 4.28H73.87L74.32 2.6H75.01L75.46 0.93H78.6873ZM85.72 7.81H81.55L80.94 10.1C80.81 10.58 80.76 10.89 80.8 11.03C80.83 11.17 80.95 11.24 81.14 11.24C81.39 11.24 81.57 11.15 81.7 10.96C81.83 10.78 81.97 10.42 82.11 9.9L82.48 8.5H85.54L85.33 9.28C85.15 9.93 84.98 10.44 84.8 10.79C84.62 11.14 84.33 11.52 83.92 11.92C83.51 12.32 83.05 12.62 82.53 12.82C82.01 13.02 81.4 13.12 80.7 13.12C80 13.12 79.44 13.02 78.98 12.82C78.52 12.62 78.18 12.35 77.98 12.01C77.78 11.67 77.68 11.29 77.68 10.88C77.68 10.47 77.78 9.87 77.99 9.08L78.82 5.99C79.07 5.06 79.39 4.33 79.78 3.8C80.17 3.26 80.69 2.86 81.34 2.57C81.99 2.29 82.68 2.14 83.42 2.14C84.32 2.14 85.02 2.31 85.52 2.65C86.02 2.99 86.31 3.45 86.39 4.02C86.48 4.59 86.39 5.38 86.1 6.41L85.72 7.81ZM82.95 6.09L83.16 5.32C83.31 4.77 83.37 4.42 83.36 4.26C83.34 4.1 83.25 4.02 83.06 4.02C82.84 4.02 82.68 4.09 82.59 4.22C82.5 4.36 82.38 4.72 82.22 5.32L82.01 6.09H82.95ZM91.1 3.34L91.43 2.33H91.4H88.22L85.38 12.92H88.51L90.48 5.58C90.62 5.07 90.72 4.74 90.77 4.58C90.82 4.42 90.91 4.29 91.04 4.18C91.17 4.07 91.31 4.02 91.45 4.02C91.68 4.02 91.79 4.12 91.79 4.33C91.79 4.54 91.65 5.16 91.37 6.2L89.57 12.93H92.7L94.55 6.03C94.79 5.12 94.98 4.56 95.1 4.35C95.23 4.14 95.41 4.03 95.63 4.03C95.85 4.03 95.97 4.14 95.97 4.35C95.97 4.57 95.85 5.12 95.61 6.03L93.76 12.93H96.89L98.91 5.4C99.14 4.53 99.26 3.91 99.26 3.52C99.26 3.13 99.12 2.81 98.83 2.54C98.55 2.27 98.13 2.14 97.58 2.14C97.17 2.14 96.76 2.24 96.37 2.44C95.97 2.64 95.59 2.94 95.21 3.34C94.93 2.54 94.36 2.14 93.5 2.14C93.06 2.14 92.64 2.24 92.24 2.44C91.84 2.64 91.46 2.94 91.1 3.34Z" fill="url(#paint0_linear_1786_2958)"/>
<defs>
<linearGradient id="paint0_linear_1786_2958" x1="85.075" y1="7.8754" x2="79.1565" y2="-14.2415" gradientUnits="userSpaceOnUse">
<stop stop-color="#434054"/>
<stop offset="0.482007" stop-color="#777390"/>
<stop offset="0.883058" stop-color="#CBA6AF"/>
</linearGradient>
</defs>
</svg>
