<svg width="90" height="14" viewBox="0 0 90 14" fill="none" xmlns="http://www.w3.org/2000/svg">
<path fill-rule="evenodd" clip-rule="evenodd" d="M11.87 0.370117L8.41004 13.2901H5.47004L5.30004 7.42011L3.73004 13.2901H0.920044L4.38004 0.370117H7.19004L7.51004 6.19012L9.07004 0.370117H11.87ZM18.33 8.18024H14.16L13.55 10.4702C13.42 10.9502 13.37 11.2602 13.41 11.3902C13.44 11.5302 13.56 11.6002 13.75 11.6002C14 11.6002 14.18 11.5102 14.31 11.3202C14.44 11.1402 14.58 10.7802 14.72 10.2502L15.09 8.85023H18.15L17.94 9.63023C17.77 10.2802 17.59 10.7902 17.41 11.1402C17.23 11.4902 16.94 11.8702 16.53 12.2602C16.12 12.6602 15.66 12.9602 15.14 13.1602C14.62 13.3602 14.01 13.4602 13.31 13.4602C12.61 13.4602 12.05 13.3602 11.59 13.1702C11.13 12.9802 10.79 12.7002 10.59 12.3602C10.39 12.0202 10.29 11.6402 10.29 11.2302C10.29 10.8202 10.39 10.2202 10.6 9.43024L11.43 6.34023C11.68 5.42023 12 4.68024 12.39 4.15024C12.78 3.61024 13.3 3.21023 13.95 2.92023C14.59 2.63023 15.29 2.49023 16.03 2.49023C16.93 2.49023 17.63 2.66024 18.13 3.01024C18.63 3.35024 18.92 3.81024 19 4.37024C19.09 4.94024 19 5.73024 18.72 6.76024L18.34 8.16024L18.33 8.18024ZM15.56 6.46024L15.77 5.69024C15.92 5.14024 15.98 4.79023 15.97 4.63023C15.95 4.47023 15.86 4.39024 15.67 4.39024C15.45 4.39024 15.29 4.46023 15.2 4.59023C15.11 4.73023 14.99 5.09024 14.83 5.69024L14.62 6.46024H15.56ZM31.2661 2.7102L31.27 2.7002V2.7102H31.2661ZM31.2661 2.7102L27.15 13.2902H23.65C23.81 12.0002 24.04 10.2902 24.35 8.1802C24.01 9.1102 23.64 10.0502 23.23 11.0002L22.26 13.3002H18.75L20.22 2.7102H23C22.95 2.9902 22.64 5.01019 22.08 8.7702C22.22 8.38019 23 6.3602 24.43 2.7102H27.1L26.13 8.7702C26.71 7.0002 27.5 4.9802 28.49 2.7102H31.2661ZM35.3901 0.370117H40.9901L40.3001 2.95011H38.0601L37.4001 5.40012H39.5001L38.8401 7.86012H36.7401L35.9801 10.7001H38.4501L37.7601 13.2901H31.9301L35.3901 0.370117ZM45.21 7.7602L47.85 2.7002H44.99C44.65 3.3502 44.08 4.5802 43.29 6.3902C43.34 6.0902 43.43 4.8602 43.58 2.7002H40.88L40.91 7.7602L38.04 13.2902H40.74C41.3 12.1402 41.86 10.9402 42.41 9.6802C42.3 10.6902 42.21 11.8902 42.15 13.2902H45.28L45.21 7.7602ZM54.38 8.18024H50.21L49.6 10.4702C49.47 10.9502 49.42 11.2602 49.46 11.3902C49.49 11.5302 49.61 11.6002 49.8 11.6002C50.05 11.6002 50.23 11.5102 50.36 11.3202C50.49 11.1402 50.63 10.7802 50.77 10.2502L51.14 8.85023H54.2L53.99 9.63023C53.82 10.2802 53.64 10.7902 53.46 11.1402C53.28 11.4902 52.99 11.8702 52.58 12.2602C52.17 12.6602 51.71 12.9602 51.19 13.1602C50.67 13.3602 50.06 13.4602 49.36 13.4602C48.66 13.4602 48.1 13.3602 47.64 13.1702C47.18 12.9802 46.84 12.7002 46.64 12.3602C46.44 12.0202 46.34 11.6402 46.34 11.2302C46.34 10.8202 46.44 10.2202 46.65 9.43024L47.48 6.34023C47.73 5.42023 48.05 4.68024 48.44 4.15024C48.83 3.61024 49.35 3.21023 50 2.92023C50.64 2.63023 51.34 2.49023 52.08 2.49023C52.98 2.49023 53.68 2.66024 54.18 3.01024C54.68 3.35024 54.97 3.81024 55.05 4.37024C55.14 4.94024 55.05 5.73024 54.77 6.76024L54.39 8.16024L54.38 8.18024ZM51.61 6.46024L51.82 5.69024C51.97 5.14024 52.03 4.79023 52.02 4.63023C52 4.47023 51.91 4.39024 51.72 4.39024C51.5 4.39024 51.34 4.46023 51.25 4.59023C51.16 4.73023 51.04 5.09024 50.88 5.69024L50.67 6.46024H51.61ZM60.1264 2.70976L60.13 2.69976L60.14 2.70976H60.1264ZM60.1264 2.70976L59.63 4.08976C60.37 3.08976 61.1899 2.55977 62.09 2.50977L61.09 6.23976C60.5 6.23976 60.05 6.31977 59.73 6.47977C59.41 6.63977 59.18 6.85977 59.04 7.14977C58.9 7.43976 58.69 8.08977 58.42 9.11977L57.3 13.2998H54.08L56.92 2.70976H60.1264ZM68.81 6.69997H65.77L66.1 5.47998C66.21 5.05998 66.26 4.76998 66.23 4.60998C66.2 4.45998 66.09 4.37997 65.91 4.37997C65.73 4.37997 65.58 4.44998 65.48 4.57998C65.38 4.70998 65.27 5.00998 65.14 5.46998L63.8 10.47C63.7 10.85 63.67 11.13 63.72 11.32C63.77 11.51 63.88 11.6 64.07 11.6C64.29 11.6 64.46 11.5 64.59 11.3C64.72 11.1 64.86 10.73 65.01 10.18L65.35 8.91998H68.22C67.99 9.76998 67.79 10.4 67.62 10.82C67.45 11.24 67.16 11.68 66.74 12.12C66.32 12.56 65.84 12.9 65.29 13.12C64.75 13.35 64.12 13.46 63.4 13.46C62.49 13.46 61.81 13.3 61.36 12.99C60.91 12.68 60.65 12.24 60.58 11.68C60.51 11.12 60.61 10.32 60.89 9.28998L61.7 6.27998C61.94 5.37998 62.21 4.69998 62.52 4.24998C62.82 3.78998 63.32 3.37997 64.01 3.01997C64.7 2.65997 65.46 2.47998 66.31 2.47998C67.16 2.47998 67.82 2.65997 68.32 3.01997C68.82 3.37997 69.1 3.82998 69.15 4.36998C69.2 4.90998 69.09 5.67998 68.83 6.67998L68.81 6.69997ZM71.32 13.2901L74.16 2.70011H70.84L68 13.2901H71.32ZM74.33 2.05012L74.78 0.370117H71.46L71.01 2.05012H74.33ZM80.9901 6.08H78.1301L78.2801 5.51C78.4101 5.02 78.4701 4.71 78.4501 4.58C78.4301 4.45 78.3101 4.38 78.0801 4.38C77.9001 4.38 77.7501 4.44 77.6301 4.56C77.5101 4.68 77.4101 4.86 77.3501 5.1C77.2601 5.42 77.2201 5.66 77.2301 5.81C77.2301 5.96 77.3301 6.13 77.5001 6.31C77.6801 6.49 78.0701 6.75 78.6801 7.1C79.4901 7.56 79.9901 7.99 80.1801 8.39C80.3601 8.79 80.3501 9.38 80.1501 10.15C79.9201 11.01 79.6301 11.66 79.2901 12.1C78.9501 12.54 78.4801 12.88 77.9001 13.11C77.3101 13.35 76.6501 13.46 75.9101 13.46C75.0901 13.46 74.4201 13.33 73.9101 13.08C73.4001 12.82 73.09 12.48 72.9901 12.04C72.8901 11.6 72.9601 10.95 73.1901 10.06L73.3301 9.55H76.1901L76.0101 10.22C75.8601 10.79 75.8001 11.16 75.8201 11.33C75.8501 11.5 75.9701 11.59 76.1801 11.59C76.4101 11.59 76.5801 11.53 76.7001 11.42C76.8201 11.31 76.9301 11.07 77.0301 10.7C77.1701 10.19 77.1901 9.88 77.1101 9.75C77.0201 9.62 76.5001 9.25 75.5401 8.62C74.7401 8.09 74.2901 7.61 74.2001 7.17C74.1101 6.74 74.1401 6.22 74.3001 5.63C74.5301 4.78 74.8101 4.16 75.1401 3.76C75.4701 3.36 75.9301 3.05 76.5301 2.83C77.1201 2.61 77.7701 2.5 78.4801 2.5C79.1901 2.5 79.7501 2.59 80.2001 2.77C80.6401 2.95 80.9601 3.18 81.1401 3.48C81.3301 3.77 81.4101 4.04 81.4001 4.29C81.3901 4.54 81.3101 4.93 81.1701 5.46L81.0001 6.07L80.9901 6.08ZM84.67 8.18024H88.84L88.85 8.16024L89.23 6.76024C89.51 5.73024 89.6 4.94024 89.51 4.37024C89.43 3.81024 89.14 3.35024 88.64 3.01024C88.14 2.66024 87.44 2.49023 86.54 2.49023C85.8 2.49023 85.1 2.63023 84.46 2.92023C83.81 3.21023 83.29 3.61024 82.9 4.15024C82.51 4.68024 82.19 5.42023 81.94 6.34023L81.11 9.43024C80.9 10.2202 80.8 10.8202 80.8 11.2302C80.8 11.6402 80.9 12.0202 81.1 12.3602C81.3 12.7002 81.64 12.9802 82.1 13.1702C82.56 13.3602 83.12 13.4602 83.82 13.4602C84.52 13.4602 85.1301 13.3602 85.65 13.1602C86.17 12.9602 86.63 12.6602 87.04 12.2602C87.4501 11.8702 87.74 11.4902 87.92 11.1402C88.1 10.7902 88.28 10.2802 88.45 9.63023L88.66 8.85023H85.6L85.23 10.2502C85.09 10.7802 84.95 11.1402 84.82 11.3202C84.69 11.5102 84.51 11.6002 84.26 11.6002C84.07 11.6002 83.95 11.5302 83.92 11.3902C83.88 11.2602 83.93 10.9502 84.06 10.4702L84.67 8.18024ZM86.28 5.69024L86.07 6.46024H85.13L85.34 5.69024C85.5 5.09024 85.62 4.73023 85.71 4.59023C85.8 4.46023 85.96 4.39024 86.18 4.39024C86.37 4.39024 86.4601 4.47023 86.48 4.63023C86.4901 4.79023 86.43 5.14024 86.28 5.69024Z" fill="url(#paint0_linear_1762_3007)"/>
<defs>
<linearGradient id="paint0_linear_1762_3007" x1="76.8786" y1="7.36876" x2="71.6404" y2="-12.2981" gradientUnits="userSpaceOnUse">
<stop stop-color="#434054"/>
<stop offset="0.482007" stop-color="#777390"/>
<stop offset="0.883058" stop-color="#CBA6AF"/>
</linearGradient>
</defs>
</svg>
