<svg width="71" height="15" viewBox="0 0 71 15" fill="none" xmlns="http://www.w3.org/2000/svg">
<path fill-rule="evenodd" clip-rule="evenodd" d="M10.96 0.48999L7.5 13.41H4.56L4.39 7.53999L2.82 13.41H0L3.46 0.48999H6.27L6.59 6.30999L8.15 0.48999H10.96ZM17.4199 8.3H13.2499L12.6399 10.59C12.5099 11.07 12.4599 11.38 12.4999 11.52C12.5299 11.66 12.6499 11.73 12.8399 11.73C13.0899 11.73 13.2699 11.64 13.4099 11.45C13.5399 11.27 13.6799 10.91 13.8199 10.39L14.1899 8.99H17.2499L17.0399 9.77C16.8599 10.42 16.6899 10.93 16.5099 11.28C16.3299 11.63 16.0399 12.01 15.6299 12.4C15.2199 12.8 14.7599 13.1 14.2399 13.3C13.7199 13.5 13.1099 13.6 12.4099 13.6C11.7099 13.6 11.1499 13.5 10.6899 13.3C10.2199 13.1 9.88989 12.83 9.68989 12.49C9.48989 12.15 9.38989 11.77 9.38989 11.36C9.38989 10.95 9.48989 10.35 9.69989 9.56L10.5299 6.47C10.7799 5.54 11.0999 4.80999 11.4899 4.27999C11.8799 3.74 12.3999 3.34 13.0499 3.05C13.6899 2.76 14.3899 2.62 15.1299 2.62C16.0299 2.62 16.7299 2.79 17.2299 3.13C17.7299 3.47 18.0199 3.93 18.0999 4.5C18.1899 5.07 18.0999 5.86 17.8199 6.89L17.4399 8.29L17.4199 8.3ZM14.6499 6.58L14.8599 5.81C15.0099 5.26 15.0699 4.91 15.0599 4.75C15.0399 4.59 14.9499 4.50999 14.7699 4.50999C14.5499 4.50999 14.3899 4.58 14.2999 4.71C14.2099 4.85 14.0899 5.21 13.9299 5.81L13.7199 6.58H14.6499ZM23.7 7.88001L26.34 2.82001H23.48C23.14 3.47001 22.57 4.70001 21.78 6.51001C21.83 6.21001 21.92 4.98001 22.07 2.82001H19.37L19.4 7.88001L16.53 13.41H19.23C19.79 12.26 20.35 11.06 20.9 9.80001C20.79 10.81 20.7 12.01 20.64 13.41H23.77L23.7 7.88001ZM30.8101 1.40997L30.8074 1.41997H27.5801L27.1301 3.08997H26.4401L25.9901 4.76997H26.6801L25.2401 10.15C24.9601 11.21 24.8101 11.87 24.7901 12.16C24.7701 12.45 24.8501 12.7 25.0301 12.92C25.2101 13.14 25.4501 13.28 25.7501 13.34C26.0501 13.4 26.5701 13.43 27.3001 13.43H28.6001L29.0601 11.72C28.5301 11.72 28.2401 11.68 28.1901 11.6C28.1401 11.51 28.2001 11.13 28.3901 10.43L29.9101 4.75997H30.7801L31.2301 3.07998H30.3601L30.8074 1.41997H30.8101V1.40997ZM37.71 6.2H40.57V6.18999L40.74 5.58C40.88 5.05 40.96 4.66 40.97 4.41C40.98 4.16 40.9 3.88999 40.71 3.59999C40.53 3.29999 40.21 3.07 39.77 2.89C39.32 2.71 38.76 2.62 38.05 2.62C37.34 2.62 36.69 2.73 36.1 2.95C35.5 3.17 35.04 3.48 34.71 3.88C34.38 4.28 34.1 4.9 33.87 5.75C33.71 6.34 33.68 6.86 33.77 7.29C33.86 7.73 34.31 8.21 35.11 8.74C36.07 9.36 36.59 9.74 36.68 9.87C36.76 10 36.74 10.31 36.6 10.82C36.5 11.18 36.39 11.43 36.27 11.54C36.15 11.65 35.98 11.71 35.75 11.71C35.54 11.71 35.42 11.63 35.39 11.46C35.37 11.29 35.43 10.92 35.58 10.35L35.76 9.68H32.9L32.76 10.19C32.53 11.08 32.46 11.73 32.56 12.17C32.66 12.61 32.97 12.96 33.48 13.21C33.99 13.46 34.66 13.59 35.48 13.59C36.22 13.59 36.88 13.47 37.47 13.23C38.05 13 38.52 12.66 38.86 12.22C39.2 11.78 39.49 11.13 39.72 10.27C39.92 9.5 39.93 8.91999 39.75 8.50999C39.56 8.10999 39.06 7.68 38.25 7.22C37.64 6.87 37.25 6.61 37.07 6.43C36.9 6.25 36.8 6.08 36.8 5.93C36.79 5.78 36.83 5.55 36.92 5.22C36.98 4.98 37.08 4.8 37.2 4.68C37.33 4.56 37.48 4.5 37.66 4.5C37.89 4.5 38.01 4.57 38.03 4.7C38.05 4.83 37.99 5.14 37.86 5.63L37.71 6.2ZM46.3599 1.40997L46.3572 1.41997H43.1299L42.6799 3.08997H41.9899L41.5399 4.76997H42.2299L40.7899 10.15C40.5099 11.21 40.3599 11.87 40.3399 12.16C40.3199 12.45 40.3999 12.7 40.5799 12.92C40.7599 13.14 40.9999 13.28 41.2999 13.34C41.5999 13.4 42.1199 13.43 42.8499 13.43H44.1499L44.6099 11.72C44.0799 11.72 43.7899 11.68 43.7399 11.6C43.6899 11.51 43.7499 11.13 43.9399 10.43L45.4599 4.75997H46.3299L46.7799 3.07998H45.9099L46.3572 1.41997H46.3599V1.40997ZM49.2301 8.3H53.4001L53.4201 8.29L53.8001 6.89C54.0801 5.86 54.1701 5.07 54.0801 4.5C54.0001 3.93 53.7101 3.47 53.2101 3.13C52.7101 2.79 52.0101 2.62 51.1101 2.62C50.3701 2.62 49.6701 2.76 49.0301 3.05C48.3801 3.34 47.8601 3.74 47.4701 4.27999C47.0801 4.80999 46.7601 5.54 46.5101 6.47L45.6801 9.56C45.4701 10.35 45.3701 10.95 45.3701 11.36C45.3701 11.77 45.4701 12.15 45.6701 12.49C45.8701 12.83 46.2001 13.1 46.6701 13.3C47.1301 13.5 47.6901 13.6 48.3901 13.6C49.0901 13.6 49.7001 13.5 50.2201 13.3C50.7401 13.1 51.2001 12.8 51.6101 12.4C52.0201 12.01 52.3101 11.63 52.4901 11.28C52.6701 10.93 52.8401 10.42 53.0201 9.77L53.2301 8.99H50.1701L49.8001 10.39C49.6601 10.91 49.5201 11.27 49.3901 11.45C49.2501 11.64 49.0701 11.73 48.8201 11.73C48.6301 11.73 48.5101 11.66 48.4801 11.52C48.4401 11.38 48.4901 11.07 48.6201 10.59L49.2301 8.3ZM50.8401 5.81L50.6301 6.58H49.7001L49.9101 5.81C50.0701 5.21 50.1901 4.85 50.2801 4.71C50.3701 4.58 50.5301 4.50999 50.7501 4.50999C50.9301 4.50999 51.0201 4.59 51.0401 4.75C51.0501 4.91 50.9901 5.26 50.8401 5.81ZM59.1999 2.82L58.8899 3.75C59.2799 3.37 59.6699 3.09 60.0699 2.9C60.4699 2.71 60.8699 2.62 61.2799 2.62C61.7799 2.62 62.1799 2.75 62.4699 3.02C62.7599 3.29 62.9099 3.6 62.8999 3.95C62.8999 4.3 62.7799 4.9 62.5599 5.74L61.3599 10.2C61.0999 11.16 60.8599 11.85 60.6399 12.25C60.4199 12.66 60.0999 12.98 59.6799 13.22C59.2599 13.46 58.7999 13.58 58.2999 13.58C57.8999 13.58 57.5599 13.49 57.2699 13.3C56.9799 13.11 56.7399 12.84 56.5599 12.47L55.9099 14.9H52.6899L55.9299 2.8H59.2099L59.1999 2.82ZM59.2899 5.9C59.4699 5.24 59.5499 4.85 59.5399 4.71C59.5299 4.57 59.4199 4.5 59.1999 4.5C58.9799 4.5 58.8299 4.58 58.7199 4.74C58.6199 4.9 58.4799 5.28 58.3199 5.9L57.1399 10.29C56.9699 10.93 56.8899 11.33 56.9199 11.49C56.9399 11.65 57.0599 11.73 57.2699 11.73C57.4799 11.73 57.6299 11.66 57.7199 11.51C57.8099 11.36 57.9299 11.01 58.0799 10.45L59.2999 5.91L59.2899 5.9ZM67.22 6.2H70.08V6.18999L70.25 5.58C70.39 5.05 70.47 4.66 70.48 4.41C70.49 4.16 70.41 3.88999 70.22 3.59999C70.04 3.29999 69.72 3.07 69.28 2.89C68.83 2.71 68.27 2.62 67.56 2.62C66.85 2.62 66.2 2.73 65.61 2.95C65.01 3.17 64.55 3.48 64.22 3.88C63.89 4.28 63.61 4.9 63.38 5.75C63.22 6.34 63.19 6.86 63.28 7.29C63.37 7.73 63.82 8.21 64.62 8.74C65.58 9.36 66.1 9.74 66.19 9.87C66.27 10 66.25 10.31 66.11 10.82C66.01 11.18 65.9 11.43 65.78 11.54C65.66 11.65 65.49 11.71 65.26 11.71C65.05 11.71 64.93 11.63 64.9 11.46C64.88 11.29 64.94 10.92 65.09 10.35L65.27 9.68H62.41L62.27 10.19C62.04 11.08 61.97 11.73 62.07 12.17C62.17 12.61 62.48 12.96 62.99 13.21C63.5 13.46 64.17 13.59 64.99 13.59C65.73 13.59 66.39 13.47 66.98 13.23C67.56 13 68.03 12.66 68.37 12.22C68.71 11.78 69 11.13 69.23 10.27C69.43 9.5 69.44 8.91999 69.26 8.50999C69.07 8.10999 68.57 7.68 67.76 7.22C67.15 6.87 66.76 6.61 66.58 6.43C66.41 6.25 66.31 6.08 66.31 5.93C66.3 5.78 66.34 5.55 66.43 5.22C66.49 4.98 66.59 4.8 66.71 4.68C66.84 4.56 66.99 4.5 67.17 4.5C67.4 4.5 67.52 4.57 67.54 4.7C67.56 4.83 67.5 5.14 67.37 5.63L67.22 6.2Z" fill="url(#paint0_linear_1786_2944)"/>
<defs>
<linearGradient id="paint0_linear_1786_2944" x1="60.4085" y1="8.19433" x2="52.8833" y2="-12.2171" gradientUnits="userSpaceOnUse">
<stop stop-color="#434054"/>
<stop offset="0.482007" stop-color="#777390"/>
<stop offset="0.883058" stop-color="#CBA6AF"/>
</linearGradient>
</defs>
</svg>
