<svg width="173" height="16" viewBox="0 0 173 16" fill="none" xmlns="http://www.w3.org/2000/svg">
<path fill-rule="evenodd" clip-rule="evenodd" d="M7.63006 10.6C7.84006 10.06 8.11006 9.14 8.46006 7.84L9.05006 5.63C9.40006 4.3 9.62006 3.38 9.70006 2.84C9.78006 2.3 9.71006 1.81 9.50006 1.36C9.28006 0.91 8.93006 0.57 8.44006 0.34C7.95006 0.11 7.36006 0 6.67006 0C5.94006 0 5.27006 0.12 4.66006 0.36C4.05006 0.6 3.52006 0.94 3.08006 1.39C2.64006 1.84 2.32006 2.33 2.11006 2.87C1.91006 3.41 1.63006 4.33 1.28006 5.63L0.690059 7.84C0.340059 9.17 0.120059 10.1 0.0400586 10.63C-0.0399414 11.17 0.0200585 11.65 0.240059 12.11C0.460059 12.57 0.810058 12.9 1.30006 13.13C1.79006 13.36 2.34006 13.47 3.07006 13.47C3.80006 13.47 4.47006 13.35 5.08006 13.11C5.69006 12.87 6.22006 12.53 6.66006 12.08C7.10006 11.63 7.42006 11.14 7.63006 10.6ZM6.44006 2.44C6.46006 2.6 6.39006 2.99 6.23006 3.59L4.64006 9.53C4.44006 10.29 4.28006 10.77 4.16006 10.97C4.04006 11.17 3.87006 11.27 3.64006 11.27C3.41006 11.27 3.29006 11.18 3.28006 11.01C3.27006 10.83 3.36006 10.37 3.56006 9.62L5.18006 3.59C5.36006 2.93 5.51006 2.53 5.64006 2.39C5.77006 2.26 5.92006 2.19 6.10006 2.19C6.30006 2.19 6.42006 2.27 6.44006 2.44ZM13.7399 3.99016L14.2399 2.60016H14.2299H11.0099L8.18994 13.2002H11.4099L12.5299 9.02016C12.7999 7.99016 13.0099 7.34016 13.1499 7.05016C13.2899 6.76016 13.5199 6.54016 13.8399 6.38016C14.1599 6.22016 14.6099 6.14016 15.1999 6.14016L16.1999 2.41016C15.2999 2.46016 14.4799 2.99016 13.7399 3.99016ZM24.19 2.60016L24.1873 2.61016H21.19L20.74 3.41016C20.57 3.07016 20.34 2.83016 20.05 2.66016C19.76 2.49016 19.41 2.41016 19.01 2.41016C18.27 2.41016 17.66 2.63016 17.18 3.07016C16.7 3.51016 16.33 4.23016 16.06 5.24016L15.03 9.09016C14.84 9.79016 14.76 10.3302 14.8 10.7102C14.83 11.0902 15.01 11.4002 15.32 11.6302C15.63 11.8602 16.08 11.9802 16.66 11.9802C16.99 11.9802 17.33 11.9202 17.67 11.7902C18.01 11.6602 18.36 11.4702 18.7 11.2202L18.49 12.0202C18.37 12.4802 18.24 12.7702 18.13 12.9202C18.02 13.0702 17.84 13.1402 17.59 13.1402C17.25 13.1402 17.14 12.9102 17.27 12.4402H14.14C13.89 13.4602 14.03 14.1402 14.56 14.4902C15.08 14.8402 15.86 15.0102 16.89 15.0102C17.72 15.0102 18.44 14.9202 19.04 14.7302C19.64 14.5402 20.15 14.2702 20.55 13.9102C20.95 13.5502 21.22 13.2102 21.36 12.8902C21.5 12.5702 21.72 11.8602 22.01 10.7602L24.1873 2.61016H24.19V2.60016ZM20.21 5.41016C20.34 4.93016 20.39 4.62016 20.37 4.48016C20.35 4.35016 20.24 4.28016 20.05 4.28016C19.86 4.28016 19.71 4.36016 19.59 4.51016C19.47 4.66016 19.35 4.96016 19.23 5.41016L18.28 8.97016C18.15 9.44016 18.1 9.75016 18.12 9.89016C18.14 10.0302 18.24 10.1002 18.43 10.1002C18.64 10.1002 18.8 10.0202 18.91 9.85016C19.02 9.68016 19.16 9.29016 19.32 8.69016L20.2 5.41016H20.21ZM24.0999 6.6999H27.1199L27.4199 5.5899C27.5699 4.9999 27.6999 4.6299 27.7899 4.4899C27.8799 4.3499 28.0299 4.2799 28.2499 4.2799C28.4399 4.2799 28.5499 4.3599 28.5899 4.5299C28.6199 4.6999 28.5699 5.0599 28.4199 5.6099C28.2999 6.0499 28.1799 6.3499 28.0699 6.4899C27.9599 6.6399 27.3199 6.9099 26.1499 7.3299C25.0599 7.7099 24.3499 8.0399 24.0199 8.3299C23.6899 8.6199 23.4199 9.1599 23.2099 9.9499L22.9799 10.8199C22.6899 11.8899 22.7399 12.5899 23.1299 12.8999C23.5199 13.2099 23.9999 13.3699 24.5599 13.3699C24.9899 13.3699 25.3899 13.2799 25.7499 13.0899C26.1099 12.8999 26.4399 12.6199 26.7399 12.2399L26.4899 13.1799H29.6299L31.0499 7.8699C31.5199 6.1199 31.7699 4.9599 31.8099 4.3999C31.8499 3.8399 31.6399 3.3699 31.1899 2.9799C30.7399 2.5899 29.9699 2.3999 28.8799 2.3999C27.9799 2.3999 27.1899 2.5699 26.5299 2.9099C25.8699 3.2499 25.3899 3.6499 25.0799 4.0899C24.7699 4.5399 24.51 5.1699 24.2899 5.9899L24.0999 6.6999ZM27.7348 8.15919C27.1238 8.53496 26.7487 8.84202 26.5999 9.0999C26.4499 9.3499 26.3099 9.7199 26.1799 10.1999C26.0299 10.7499 25.9699 11.0999 25.9999 11.2599C26.0299 11.4199 26.15 11.4999 26.3599 11.4999C26.57 11.4999 26.7099 11.4399 26.7999 11.3099C26.8899 11.1799 27.0099 10.8599 27.1599 10.3199L27.7348 8.15919ZM36.85 2.60016L36.8467 2.61016H33.57L30.73 13.2002H33.95L35.87 6.04016C36.08 5.24016 36.24 4.75016 36.35 4.57016C36.46 4.38016 36.63 4.29016 36.86 4.29016C37.07 4.29016 37.19 4.37016 37.19 4.53016C37.19 4.69016 37.1 5.13016 36.9 5.86016L34.94 13.1902H38.16L40.15 5.77016C40.4 4.85016 40.53 4.19016 40.53 3.79016C40.54 3.39016 40.4 3.06016 40.12 2.80016C39.84 2.54016 39.42 2.41016 38.87 2.41016C38.43 2.41016 38.01 2.51016 37.62 2.70016C37.23 2.90016 36.87 3.19016 36.53 3.58016L36.8467 2.61016H36.85V2.60016ZM42.6 13.19L45.44 2.60002H42.12L39.28 13.19H42.6ZM45.61 1.95002L46.06 0.27002H42.74L42.29 1.95002H45.61ZM51.62 2.6001L50.99 4.9501L46.97 11.0701H49.35L48.78 13.1901H43.28L43.87 10.9701L47.97 4.7201H45.79L46.36 2.6001H51.61H51.62ZM52.81 13.19L55.65 2.60002H52.33L49.49 13.19H52.81ZM55.82 1.95002L56.27 0.27002H52.95L52.5 1.95002H55.82ZM60.09 2.60016L60.0867 2.61016H56.81L53.97 13.2002H57.19L59.11 6.04016C59.32 5.24016 59.48 4.75016 59.59 4.57016C59.7 4.38016 59.87 4.29016 60.1 4.29016C60.31 4.29016 60.43 4.37016 60.43 4.53016C60.43 4.69016 60.34 5.13016 60.14 5.86016L58.18 13.1902H61.4L63.39 5.77016C63.64 4.85016 63.77 4.19016 63.77 3.79016C63.78 3.39016 63.64 3.06016 63.36 2.80016C63.08 2.54016 62.66 2.41016 62.11 2.41016C61.67 2.41016 61.25 2.51016 60.86 2.70016C60.47 2.90016 60.11 3.19016 59.77 3.58016L60.0867 2.61016H60.09V2.60016ZM72.6773 2.61016L72.68 2.60016V2.61016H72.6773ZM69.68 2.61016H72.6773L70.5 10.7602C70.21 11.8602 69.99 12.5702 69.85 12.8902C69.71 13.2102 69.44 13.5502 69.04 13.9102C68.64 14.2702 68.13 14.5402 67.53 14.7302C66.93 14.9202 66.21 15.0102 65.38 15.0102C64.35 15.0102 63.57 14.8402 63.05 14.4902C62.52 14.1402 62.38 13.4602 62.63 12.4402H65.76C65.63 12.9102 65.74 13.1402 66.08 13.1402C66.33 13.1402 66.51 13.0702 66.62 12.9202C66.73 12.7702 66.86 12.4802 66.98 12.0202L67.19 11.2202C66.85 11.4702 66.5 11.6602 66.16 11.7902C65.82 11.9202 65.48 11.9802 65.15 11.9802C64.57 11.9802 64.12 11.8602 63.81 11.6302C63.5 11.4002 63.32 11.0902 63.29 10.7102C63.25 10.3302 63.33 9.79016 63.52 9.09016L64.55 5.24016C64.82 4.23016 65.19 3.51016 65.67 3.07016C66.15 2.63016 66.76 2.41016 67.5 2.41016C67.9 2.41016 68.25 2.49016 68.54 2.66016C68.83 2.83016 69.06 3.07016 69.23 3.41016L69.68 2.61016ZM68.86 4.48016C68.88 4.62016 68.83 4.93016 68.7 5.41016H68.69L67.81 8.69016C67.65 9.29016 67.51 9.68016 67.4 9.85016C67.29 10.0202 67.13 10.1002 66.92 10.1002C66.73 10.1002 66.63 10.0302 66.61 9.89016C66.59 9.75016 66.64 9.44016 66.77 8.97016L67.72 5.41016C67.84 4.96016 67.96 4.66016 68.08 4.51016C68.2 4.36016 68.35 4.28016 68.54 4.28016C68.73 4.28016 68.84 4.35016 68.86 4.48016ZM77.43 0.27002H83.03L82.34 2.85002H80.1L79.44 5.30002H81.54L80.88 7.76002H78.78L78.02 10.6H80.49L79.8 13.19H73.97L77.43 0.27002ZM87.25 7.6601L89.89 2.6001H87.03C86.69 3.2501 86.12 4.4801 85.33 6.2901C85.38 5.9901 85.47 4.7601 85.62 2.6001H82.92L82.95 7.6601L80.08 13.1901H82.78C83.34 12.0401 83.8999 10.8401 84.45 9.5801C84.34 10.5901 84.25 11.7901 84.19 13.1901H87.32L87.25 7.6601ZM96.42 8.08014H92.25L91.64 10.3701C91.51 10.8501 91.46 11.1601 91.5 11.2901C91.53 11.4301 91.65 11.5001 91.84 11.5001C92.09 11.5001 92.27 11.4101 92.4 11.2201C92.53 11.0401 92.67 10.6801 92.81 10.1501L93.18 8.75014H96.24L96.03 9.53014C95.86 10.1801 95.68 10.6901 95.5 11.0401C95.32 11.3901 95.03 11.7701 94.62 12.1601C94.21 12.5601 93.75 12.8601 93.23 13.0601C92.71 13.2601 92.1 13.3601 91.4 13.3601C90.7 13.3601 90.14 13.2601 89.68 13.0701C89.22 12.8801 88.88 12.6001 88.68 12.2601C88.48 11.9201 88.38 11.5401 88.38 11.1301C88.38 10.7201 88.48 10.1201 88.69 9.33014L89.52 6.24014C89.77 5.32014 90.09 4.58014 90.48 4.05014C90.87 3.51014 91.39 3.11014 92.04 2.82014C92.68 2.53014 93.38 2.39014 94.12 2.39014C95.02 2.39014 95.72 2.56014 96.22 2.91014C96.72 3.25014 97.01 3.71014 97.09 4.27014C97.18 4.84014 97.09 5.63014 96.81 6.66014L96.43 8.06014L96.42 8.08014ZM93.65 6.36014L93.86 5.59014C94.01 5.04014 94.07 4.69014 94.06 4.53014C94.04 4.37014 93.95 4.29014 93.76 4.29014C93.54 4.29014 93.38 4.36014 93.29 4.49014C93.2 4.63014 93.08 4.99014 92.92 5.59014L92.71 6.36014H93.65ZM102.166 2.61016L102.17 2.60016L102.18 2.61016H102.166ZM102.166 2.61016L101.67 3.99016C102.41 2.99016 103.23 2.46016 104.13 2.41016L103.13 6.14016C102.54 6.14016 102.09 6.22016 101.77 6.38016C101.45 6.54016 101.22 6.76016 101.08 7.05016C100.94 7.34016 100.73 7.99016 100.46 9.02016L99.34 13.2002H96.12L98.96 2.61016H102.166ZM110.85 6.59988H107.81L108.14 5.37988C108.25 4.95988 108.3 4.66988 108.27 4.50988C108.24 4.35988 108.13 4.27988 107.95 4.27988C107.77 4.27988 107.62 4.34988 107.52 4.47988C107.42 4.60988 107.31 4.90988 107.18 5.36988L105.84 10.3699C105.74 10.7499 105.71 11.0299 105.76 11.2199C105.81 11.4099 105.92 11.4999 106.11 11.4999C106.33 11.4999 106.5 11.3999 106.63 11.1999C106.76 10.9999 106.9 10.6299 107.05 10.0799L107.39 8.81988H110.26C110.03 9.66988 109.83 10.2999 109.66 10.7199C109.49 11.1399 109.2 11.5799 108.78 12.0199C108.36 12.4599 107.88 12.7999 107.33 13.0199C106.79 13.2499 106.16 13.3599 105.44 13.3599C104.53 13.3599 103.85 13.1999 103.4 12.8899C102.95 12.5799 102.69 12.1399 102.62 11.5799C102.55 11.0199 102.65 10.2199 102.93 9.18988L103.74 6.17988C103.98 5.27988 104.25 4.59988 104.56 4.14988C104.86 3.68988 105.36 3.27988 106.05 2.91988C106.74 2.55988 107.5 2.37988 108.35 2.37988C109.2 2.37988 109.86 2.55988 110.36 2.91988C110.86 3.27988 111.14 3.72988 111.19 4.26988C111.24 4.80988 111.13 5.57988 110.87 6.57988L110.85 6.59988ZM113.35 13.19L116.19 2.60002H112.87L110.03 13.19H113.35ZM116.36 1.95002L116.81 0.27002H113.49L113.04 1.95002H116.36ZM123.03 5.9799H120.17L120.32 5.4099C120.45 4.9199 120.51 4.6099 120.49 4.4799C120.47 4.3499 120.35 4.2799 120.12 4.2799C119.94 4.2799 119.79 4.3399 119.67 4.4599C119.55 4.5799 119.45 4.7599 119.39 4.9999C119.3 5.3199 119.26 5.5599 119.27 5.7099C119.27 5.8599 119.37 6.0299 119.54 6.2099C119.72 6.3899 120.11 6.6499 120.72 6.9999C121.53 7.4599 122.03 7.8899 122.22 8.2899C122.4 8.6899 122.39 9.2799 122.19 10.0499C121.96 10.9099 121.67 11.5599 121.33 11.9999C120.99 12.4399 120.52 12.7799 119.94 13.0099C119.35 13.2499 118.69 13.3599 117.95 13.3599C117.13 13.3599 116.46 13.2299 115.95 12.9799C115.44 12.7199 115.13 12.3799 115.03 11.9399C114.93 11.4999 115 10.8499 115.23 9.9599L115.37 9.4499H118.23L118.05 10.1199C117.9 10.6899 117.84 11.0599 117.86 11.2299C117.89 11.3999 118.01 11.4899 118.22 11.4899C118.45 11.4899 118.62 11.4299 118.74 11.3199C118.86 11.2099 118.97 10.9699 119.07 10.5999C119.21 10.0899 119.23 9.7799 119.15 9.6499C119.06 9.5199 118.54 9.1499 117.58 8.5199C116.78 7.9899 116.33 7.5099 116.24 7.0699C116.15 6.6399 116.18 6.1199 116.34 5.5299C116.57 4.6799 116.85 4.0599 117.18 3.6599C117.51 3.2599 117.97 2.9499 118.57 2.7299C119.16 2.5099 119.81 2.3999 120.52 2.3999C121.23 2.3999 121.79 2.4899 122.24 2.6699C122.68 2.8499 123 3.0799 123.18 3.3799C123.37 3.6699 123.45 3.9399 123.44 4.1899C123.43 4.4399 123.35 4.8299 123.21 5.3599L123.04 5.9699L123.03 5.9799ZM126.71 8.08014H130.88L130.89 8.06014L131.27 6.66014C131.55 5.63014 131.64 4.84014 131.55 4.27014C131.47 3.71014 131.18 3.25014 130.68 2.91014C130.18 2.56014 129.48 2.39014 128.58 2.39014C127.84 2.39014 127.14 2.53014 126.5 2.82014C125.85 3.11014 125.33 3.51014 124.94 4.05014C124.55 4.58014 124.23 5.32014 123.98 6.24014L123.15 9.33014C122.94 10.1201 122.84 10.7201 122.84 11.1301C122.84 11.5401 122.94 11.9201 123.14 12.2601C123.34 12.6001 123.68 12.8801 124.14 13.0701C124.6 13.2601 125.16 13.3601 125.86 13.3601C126.56 13.3601 127.17 13.2601 127.69 13.0601C128.21 12.8601 128.67 12.5601 129.08 12.1601C129.49 11.7701 129.78 11.3901 129.96 11.0401C130.14 10.6901 130.32 10.1801 130.49 9.53014L130.7 8.75014H127.64L127.27 10.1501C127.13 10.6801 126.99 11.0401 126.86 11.2201C126.73 11.4101 126.55 11.5001 126.3 11.5001C126.11 11.5001 125.99 11.4301 125.96 11.2901C125.92 11.1601 125.97 10.8501 126.1 10.3701L126.71 8.08014ZM128.32 5.59014L128.11 6.36014H127.17L127.38 5.59014C127.54 4.99014 127.66 4.63014 127.75 4.49014C127.84 4.36014 128 4.29014 128.22 4.29014C128.41 4.29014 128.5 4.37014 128.52 4.53014C128.53 4.69014 128.47 5.04014 128.32 5.59014ZM147.37 0.27002L143.91 13.19H140.97L143.3 4.47002L139.79 13.19H137.71L138.76 4.67002L136.47 13.19H133.53L136.99 0.27002H141.34C141.26 1.05002 141.15 1.96002 141 3.02002L140.6 6.31002L142.99 0.28002H147.36L147.37 0.27002ZM149.66 8.08014H153.83L153.84 8.06014L154.22 6.66014C154.5 5.63014 154.59 4.84014 154.5 4.27014C154.42 3.71014 154.13 3.25014 153.63 2.91014C153.13 2.56014 152.43 2.39014 151.53 2.39014C150.79 2.39014 150.09 2.53014 149.45 2.82014C148.8 3.11014 148.28 3.51014 147.89 4.05014C147.5 4.58014 147.18 5.32014 146.93 6.24014L146.1 9.33014C145.89 10.1201 145.79 10.7201 145.79 11.1301C145.79 11.5401 145.89 11.9201 146.09 12.2601C146.29 12.6001 146.63 12.8801 147.09 13.0701C147.55 13.2601 148.11 13.3601 148.81 13.3601C149.51 13.3601 150.12 13.2601 150.64 13.0601C151.16 12.8601 151.62 12.5601 152.03 12.1601C152.44 11.7701 152.73 11.3901 152.91 11.0401C153.09 10.6901 153.27 10.1801 153.44 9.53014L153.65 8.75014H150.59L150.22 10.1501C150.08 10.6801 149.94 11.0401 149.81 11.2201C149.68 11.4101 149.5 11.5001 149.25 11.5001C149.06 11.5001 148.94 11.4301 148.91 11.2901C148.87 11.1601 148.92 10.8501 149.05 10.3701L149.66 8.08014ZM151.27 5.59014L151.06 6.36014H150.12L150.33 5.59014C150.49 4.99014 150.61 4.63014 150.7 4.49014C150.79 4.36014 150.95 4.29014 151.17 4.29014C151.36 4.29014 151.45 4.37014 151.47 4.53014C151.48 4.69014 151.42 5.04014 151.27 5.59014ZM159.63 2.60016L159.627 2.61016H156.35L153.51 13.2002H156.73L158.65 6.04016C158.86 5.24016 159.02 4.75016 159.13 4.57016C159.24 4.38016 159.41 4.29016 159.64 4.29016C159.85 4.29016 159.97 4.37016 159.97 4.53016C159.97 4.69016 159.88 5.13016 159.68 5.86016L157.72 13.1902H160.94L162.93 5.77016C163.18 4.85016 163.31 4.19016 163.31 3.79016C163.32 3.39016 163.18 3.06016 162.9 2.80016C162.62 2.54016 162.2 2.41016 161.65 2.41016C161.21 2.41016 160.79 2.51016 160.4 2.70016C160.01 2.90016 159.65 3.19016 159.31 3.58016L159.627 2.61016H159.63V2.60016ZM169.44 13.1901L172.28 2.6001H172.26H169.04L167.13 9.7301C166.9 10.6001 166.74 11.1101 166.65 11.2701C166.56 11.4301 166.4 11.5101 166.16 11.5101C165.94 11.5101 165.82 11.4401 165.81 11.2801C165.8 11.1201 165.91 10.6301 166.13 9.8101L168.06 2.6001H164.84L162.93 9.7401C162.69 10.6501 162.54 11.2501 162.5 11.5601C162.46 11.8601 162.47 12.1601 162.55 12.4401C162.62 12.7201 162.8 12.9501 163.07 13.1201C163.35 13.3001 163.73 13.3801 164.21 13.3801C164.63 13.3801 165.03 13.2901 165.41 13.1101C165.78 12.9301 166.13 12.6701 166.45 12.3101L166.16 13.1901H169.44Z" fill="url(#paint0_linear_1762_3005)"/>
<defs>
<linearGradient id="paint0_linear_1762_3005" x1="147.661" y1="8.02519" x2="143.958" y2="-15.5444" gradientUnits="userSpaceOnUse">
<stop stop-color="#434054"/>
<stop offset="0.482007" stop-color="#777390"/>
<stop offset="0.883058" stop-color="#CBA6AF"/>
</linearGradient>
</defs>
</svg>
