<svg width="171" height="16" viewBox="0 0 171 16" fill="none" xmlns="http://www.w3.org/2000/svg">
<path fill-rule="evenodd" clip-rule="evenodd" d="M7.63 11.45C7.84 10.91 8.11 9.98998 8.46 8.68998L9.05 6.47998C9.40001 5.14998 9.62 4.21998 9.7 3.68998C9.78 3.14998 9.71 2.65998 9.5 2.20998C9.28 1.75998 8.93 1.41998 8.44 1.18998C7.95 0.95998 7.36 0.849976 6.67 0.849976C5.94 0.849976 5.27 0.969976 4.66 1.20998C4.05 1.44998 3.52 1.78997 3.08 2.23997C2.64 2.68998 2.32 3.17998 2.11 3.71998C1.91 4.25998 1.63 5.17998 1.28 6.47998L0.690005 8.68998C0.340005 10.02 0.120005 10.95 0.0400047 11.48C-0.0399953 12.02 0.0300047 12.51 0.240005 12.96C0.460005 13.41 0.810005 13.75 1.3 13.98C1.79 14.21 2.34 14.32 3.07 14.32C3.8 14.32 4.47 14.2 5.08 13.96C5.69 13.72 6.22 13.38 6.66 12.93C7.1 12.48 7.42 11.99 7.63 11.45ZM6.45 3.28998C6.47 3.45998 6.4 3.83998 6.24 4.43998L4.65 10.38C4.45001 11.14 4.29 11.62 4.17 11.82C4.05 12.02 3.88 12.12 3.65 12.12C3.42 12.12 3.3 12.04 3.29 11.86C3.28 11.68 3.37 11.22 3.57 10.47L5.19 4.43998C5.37 3.77998 5.52 3.37998 5.65 3.23997C5.78 3.10997 5.93001 3.03998 6.11 3.03998C6.31 3.03998 6.43 3.11998 6.45 3.28998ZM14.2364 3.45998L14.24 3.44997V3.45998H14.2364ZM14.2364 3.45998L13.74 4.83997C14.47 3.83997 15.29 3.30998 16.2 3.25998L15.2 6.98997C14.61 6.98997 14.16 7.06998 13.83 7.22998C13.51 7.38998 13.28 7.60998 13.14 7.89998C13 8.18998 12.79 8.83998 12.52 9.86998L11.4 14.05H8.17999L11.02 3.45998H14.2364ZM24.19 3.44997L22 11.6C21.71 12.7 21.49 13.41 21.35 13.73C21.21 14.05 20.94 14.39 20.54 14.75C20.14 15.11 19.63 15.38 19.03 15.57C18.43 15.76 17.71 15.85 16.87 15.85C15.84 15.85 15.07 15.68 14.54 15.33C14.01 14.98 13.87 14.3 14.12 13.28H17.25C17.13 13.75 17.23 13.98 17.57 13.98C17.82 13.98 18 13.91 18.11 13.77C18.23 13.63 18.35 13.32 18.47 12.87L18.68 12.07C18.34 12.32 17.99 12.51 17.65 12.64C17.31 12.77 16.97 12.83 16.64 12.83C16.06 12.83 15.61 12.71 15.3 12.48C14.99 12.25 14.81 11.94 14.78 11.56C14.74 11.18 14.82 10.64 15.01 9.93998L16.04 6.08997C16.31 5.08997 16.68 4.35998 17.16 3.91998C17.64 3.47998 18.25 3.25998 18.99 3.25998C19.39 3.25998 19.74 3.33998 20.03 3.50998C20.32 3.67998 20.55 3.91998 20.72 4.24998L21.17 3.44997H24.17H24.19ZM20.21 6.25998C20.34 5.77998 20.39 5.46997 20.37 5.33997C20.35 5.20997 20.24 5.13998 20.05 5.13998C19.86 5.13998 19.71 5.21998 19.59 5.36998C19.47 5.51998 19.35 5.81997 19.23 6.26997L18.28 9.82998C18.15 10.3 18.1 10.61 18.12 10.75C18.14 10.89 18.24 10.96 18.43 10.96C18.64 10.96 18.8 10.88 18.91 10.71C19.02 10.54 19.15 10.15 19.32 9.54998L20.2 6.26997L20.21 6.25998ZM24.1 7.54998H27.12L27.42 6.43998C27.57 5.84998 27.7 5.47997 27.79 5.33997C27.88 5.19997 28.03 5.12997 28.25 5.12997C28.44 5.12997 28.55 5.20997 28.59 5.37997C28.62 5.54997 28.57 5.90998 28.42 6.45998C28.3 6.89998 28.18 7.19997 28.07 7.33997C27.96 7.48997 27.32 7.75998 26.15 8.17998C25.06 8.56998 24.35 8.89998 24.02 9.18998C23.69 9.47998 23.42 10.02 23.21 10.81L22.98 11.68C22.69 12.75 22.74 13.44 23.13 13.76C23.52 14.07 24 14.23 24.56 14.23C24.99 14.23 25.39 14.14 25.75 13.95C26.11 13.76 26.44 13.48 26.74 13.1L26.49 14.04H29.63L31.05 8.72998C31.52 6.97998 31.77 5.81998 31.81 5.25998C31.85 4.69998 31.64 4.22997 31.19 3.83997C30.74 3.44997 29.97 3.25998 28.88 3.25998C27.98 3.25998 27.19 3.42997 26.53 3.76997C25.87 4.10997 25.39 4.50997 25.08 4.94997C24.77 5.38997 24.51 6.01997 24.29 6.83997L24.1 7.54998ZM27.7349 9.00927C27.1238 9.38503 26.7488 9.6921 26.6 9.94997C26.45 10.21 26.31 10.57 26.18 11.05C26.03 11.6 25.97 11.95 26 12.11C26.03 12.27 26.15 12.35 26.36 12.35C26.56 12.35 26.71 12.29 26.8 12.16C26.89 12.04 27.01 11.71 27.16 11.17L27.7349 9.00927ZM36.85 3.44997L36.53 4.42998C36.87 4.03998 37.23 3.74998 37.62 3.54998C38.01 3.35998 38.43 3.25998 38.87 3.25998C39.42 3.25998 39.84 3.38998 40.12 3.64998C40.4 3.90998 40.54 4.23998 40.53 4.63998C40.53 5.03998 40.4 5.69998 40.15 6.61998L38.16 14.04H34.94L36.9 6.70998C37.1 5.97998 37.19 5.53997 37.18 5.37997C37.18 5.21997 37.06 5.13998 36.85 5.13998C36.62 5.13998 36.45 5.22998 36.34 5.41998C36.23 5.59998 36.07 6.08998 35.86 6.88998L33.94 14.05H30.72L33.56 3.45998H36.84L36.85 3.44997ZM42.6 14.04L45.44 3.44996H42.12L39.28 14.04H42.6ZM45.61 2.79996L46.06 1.11996H42.74L42.29 2.79996H45.61ZM51.62 3.44998L50.99 5.79999L46.97 11.92H49.35L48.78 14.04H43.28L43.87 11.82L47.97 5.56998H45.79L46.36 3.44998H51.61H51.62ZM52.81 14.04L55.65 3.44996H52.33L49.49 14.04H52.81ZM55.82 2.79996L56.27 1.11996H52.95L52.5 2.79996H55.82ZM60.09 3.44997L59.77 4.42998C60.11 4.03998 60.47 3.74998 60.86 3.54998C61.25 3.35998 61.67 3.25998 62.11 3.25998C62.66 3.25998 63.08 3.38998 63.36 3.64998C63.64 3.90998 63.78 4.23998 63.77 4.63998C63.77 5.03998 63.64 5.69998 63.39 6.61998L61.4 14.04H58.18L60.14 6.70998C60.34 5.97998 60.43 5.53997 60.42 5.37997C60.42 5.21997 60.3 5.13998 60.09 5.13998C59.86 5.13998 59.69 5.22998 59.58 5.41998C59.47 5.59998 59.31 6.08998 59.1 6.88998L57.18 14.05H53.96L56.8 3.45998H60.08L60.09 3.44997ZM70.49 11.6L72.68 3.44997H72.66H69.66L69.21 4.24998C69.04 3.91998 68.81 3.67998 68.52 3.50998C68.23 3.33998 67.88 3.25998 67.48 3.25998C66.74 3.25998 66.13 3.47998 65.65 3.91998C65.17 4.35998 64.8 5.08997 64.53 6.08997L63.5 9.93998C63.31 10.64 63.23 11.18 63.27 11.56C63.3 11.94 63.48 12.25 63.79 12.48C64.1 12.71 64.55 12.83 65.13 12.83C65.46 12.83 65.8 12.77 66.14 12.64C66.48 12.51 66.83 12.32 67.17 12.07L66.96 12.87C66.84 13.32 66.72 13.63 66.6 13.77C66.49 13.91 66.31 13.98 66.06 13.98C65.72 13.98 65.62 13.75 65.74 13.28H62.61C62.36 14.3 62.5 14.98 63.03 15.33C63.56 15.68 64.33 15.85 65.36 15.85C66.2 15.85 66.92 15.76 67.52 15.57C68.12 15.38 68.63 15.11 69.03 14.75C69.43 14.39 69.7 14.05 69.84 13.73C69.98 13.41 70.2 12.7 70.49 11.6ZM68.86 5.33997C68.88 5.46997 68.83 5.77998 68.7 6.25998L68.69 6.26997L67.81 9.54998C67.64 10.15 67.51 10.54 67.4 10.71C67.29 10.88 67.13 10.96 66.92 10.96C66.73 10.96 66.63 10.89 66.61 10.75C66.59 10.61 66.64 10.3 66.77 9.82998L67.72 6.26997C67.84 5.81997 67.96 5.51998 68.08 5.36998C68.2 5.21998 68.35 5.13998 68.54 5.13998C68.73 5.13998 68.84 5.20997 68.86 5.33997ZM77.43 1.11996H83.03L82.34 3.70996H80.1L79.44 6.15997H81.54L80.88 8.61996H78.78L78.02 11.46H80.49L79.8 14.04H73.97L77.43 1.11996ZM87.25 8.50999L89.89 3.44998H87.03C86.69 4.09998 86.12 5.32998 85.33 7.13998C85.38 6.83998 85.47 5.60998 85.62 3.44998H82.92L82.95 8.50999L80.08 14.04H82.78C83.34 12.89 83.9 11.69 84.45 10.43C84.34 11.44 84.25 12.64 84.19 14.04H87.32L87.25 8.50999ZM96.42 8.92996H92.25L91.64 11.22C91.51 11.7 91.46 12.01 91.5 12.15C91.53 12.29 91.65 12.36 91.84 12.36C92.09 12.36 92.27 12.27 92.4 12.08C92.53 11.9 92.67 11.54 92.81 11.02L93.18 9.61996H96.24L96.03 10.4C95.85 11.05 95.68 11.56 95.5 11.91C95.32 12.26 95.03 12.64 94.62 13.04C94.21 13.44 93.75 13.74 93.23 13.94C92.71 14.14 92.1 14.24 91.4 14.24C90.7 14.24 90.14 14.14 89.68 13.95C89.22 13.76 88.88 13.48 88.68 13.14C88.48 12.8 88.38 12.42 88.38 12.01C88.38 11.6 88.48 11 88.69 10.21L89.52 7.11996C89.77 6.18996 90.09 5.45996 90.48 4.92996C90.87 4.39996 91.39 3.98996 92.04 3.69996C92.69 3.41996 93.38 3.26996 94.12 3.26996C95.02 3.26996 95.72 3.43996 96.22 3.77996C96.72 4.11996 97.01 4.57996 97.09 5.14996C97.18 5.71996 97.09 6.50996 96.8 7.53996L96.42 8.93996V8.92996ZM93.65 7.20996L93.86 6.43996C94.01 5.88996 94.07 5.53996 94.06 5.37996C94.04 5.21996 93.95 5.13996 93.77 5.13996C93.55 5.13996 93.39 5.20996 93.3 5.33996C93.21 5.47996 93.09 5.83996 92.93 6.43996L92.72 7.20996H93.65ZM102.166 3.45998L102.17 3.44997V3.45998H102.166ZM102.166 3.45998L101.67 4.83997C102.4 3.83997 103.22 3.30998 104.13 3.25998L103.13 6.98997C102.54 6.98997 102.09 7.06998 101.76 7.22998C101.44 7.38998 101.21 7.60998 101.07 7.89998C100.93 8.18998 100.72 8.83998 100.45 9.86998L99.33 14.05H96.11L98.95 3.45998H102.166ZM110.85 7.44996H107.81L108.14 6.22997C108.25 5.79997 108.3 5.51996 108.27 5.35996C108.24 5.20996 108.13 5.12996 107.95 5.12996C107.77 5.12996 107.62 5.19996 107.52 5.32996C107.42 5.45996 107.31 5.75996 107.19 6.21996L105.85 11.22C105.75 11.6 105.72 11.88 105.77 12.07C105.82 12.26 105.93 12.35 106.12 12.35C106.34 12.35 106.51 12.25 106.64 12.06C106.77 11.86 106.91 11.49 107.05 10.94L107.39 9.67996H110.26C110.03 10.53 109.83 11.16 109.66 11.58C109.49 12 109.2 12.44 108.78 12.88C108.36 13.32 107.88 13.66 107.33 13.89C106.79 14.11 106.16 14.23 105.44 14.23C104.53 14.23 103.85 14.07 103.4 13.76C102.95 13.45 102.69 13.01 102.62 12.45C102.55 11.89 102.65 11.09 102.93 10.06L103.74 7.04996C103.98 6.14996 104.25 5.46996 104.56 5.00996C104.86 4.54996 105.36 4.13996 106.05 3.77996C106.74 3.41996 107.5 3.23996 108.35 3.23996C109.2 3.23996 109.86 3.41996 110.36 3.76996C110.86 4.12996 111.14 4.57996 111.19 5.11996C111.24 5.65996 111.13 6.42996 110.87 7.42996L110.85 7.44996ZM113.35 14.04L116.19 3.44996H112.87L110.03 14.04H113.35ZM116.36 2.79996L116.81 1.11996H113.49L113.04 2.79996H116.36ZM122.37 3.44998L121.74 5.79999L117.72 11.92H120.1L119.53 14.04H114.03L114.62 11.82L118.72 5.56998H116.54L117.11 3.44998H122.36H122.37ZM124.75 8.92996H128.92V8.93996L129.3 7.53996C129.59 6.50996 129.68 5.71996 129.59 5.14996C129.51 4.57996 129.22 4.11996 128.72 3.77996C128.22 3.43996 127.52 3.26996 126.62 3.26996C125.88 3.26996 125.19 3.41996 124.54 3.69996C123.89 3.98996 123.37 4.39996 122.98 4.92996C122.59 5.45996 122.27 6.18996 122.02 7.11996L121.19 10.21C120.98 11 120.88 11.6 120.88 12.01C120.88 12.42 120.98 12.8 121.18 13.14C121.38 13.48 121.72 13.76 122.18 13.95C122.64 14.14 123.2 14.24 123.9 14.24C124.6 14.24 125.21 14.14 125.73 13.94C126.25 13.74 126.71 13.44 127.12 13.04C127.53 12.64 127.82 12.26 128 11.91C128.18 11.56 128.35 11.05 128.53 10.4L128.74 9.61996H125.68L125.31 11.02C125.17 11.54 125.03 11.9 124.9 12.08C124.77 12.27 124.59 12.36 124.34 12.36C124.15 12.36 124.03 12.29 124 12.15C123.96 12.01 124.01 11.7 124.14 11.22L124.75 8.92996ZM126.36 6.43996L126.15 7.20996H125.22L125.43 6.43996C125.59 5.83996 125.71 5.47996 125.8 5.33996C125.89 5.20996 126.05 5.13996 126.27 5.13996C126.45 5.13996 126.54 5.21996 126.56 5.37996C126.57 5.53996 126.51 5.88996 126.36 6.43996ZM145.41 1.11996L141.95 14.04H139.01L141.34 5.31996L137.83 14.04H135.75L136.8 5.51996L134.51 14.04H131.57L135.03 1.11996H139.38C139.3 1.89996 139.19 2.80996 139.04 3.86996L138.64 7.15997L141.03 1.12996H145.4L145.41 1.11996ZM147.7 8.92996H151.87V8.93996L152.25 7.53996C152.54 6.50996 152.63 5.71996 152.54 5.14996C152.46 4.57996 152.17 4.11996 151.67 3.77996C151.17 3.43996 150.47 3.26996 149.57 3.26996C148.83 3.26996 148.14 3.41996 147.49 3.69996C146.84 3.98996 146.32 4.39996 145.93 4.92996C145.54 5.45996 145.22 6.18996 144.97 7.11996L144.14 10.21C143.93 11 143.83 11.6 143.83 12.01C143.83 12.42 143.93 12.8 144.13 13.14C144.33 13.48 144.67 13.76 145.13 13.95C145.59 14.14 146.15 14.24 146.85 14.24C147.55 14.24 148.16 14.14 148.68 13.94C149.2 13.74 149.66 13.44 150.07 13.04C150.48 12.64 150.77 12.26 150.95 11.91C151.13 11.56 151.3 11.05 151.48 10.4L151.69 9.61996H148.63L148.26 11.02C148.12 11.54 147.98 11.9 147.85 12.08C147.72 12.27 147.54 12.36 147.29 12.36C147.1 12.36 146.98 12.29 146.95 12.15C146.91 12.01 146.96 11.7 147.09 11.22L147.7 8.92996ZM149.31 6.43996L149.1 7.20996H148.17L148.38 6.43996C148.54 5.83996 148.66 5.47996 148.75 5.33996C148.84 5.20996 149 5.13996 149.22 5.13996C149.4 5.13996 149.49 5.21996 149.51 5.37996C149.52 5.53996 149.46 5.88996 149.31 6.43996ZM157.67 3.44997L157.35 4.42998C157.69 4.03998 158.05 3.74998 158.44 3.54998C158.83 3.35998 159.25 3.25998 159.69 3.25998C160.24 3.25998 160.66 3.38998 160.94 3.64998C161.22 3.90998 161.36 4.23998 161.35 4.63998C161.35 5.03998 161.22 5.69998 160.97 6.61998L158.98 14.04H155.76L157.72 6.70998C157.92 5.97998 158.01 5.53997 158 5.37997C158 5.21997 157.88 5.13998 157.67 5.13998C157.44 5.13998 157.27 5.22998 157.16 5.41998C157.05 5.59998 156.89 6.08998 156.68 6.88998L154.76 14.05H151.54L154.38 3.45998H157.66L157.67 3.44997ZM167.48 14.04L170.32 3.44998L170.3 3.46999H167.08L165.17 10.59C164.94 11.46 164.78 11.97 164.69 12.13C164.6 12.29 164.44 12.37 164.2 12.37C163.98 12.37 163.85 12.29 163.85 12.14C163.84 11.98 163.95 11.49 164.17 10.67L166.1 3.45998H162.88L160.97 10.6C160.73 11.51 160.58 12.11 160.54 12.42C160.5 12.72 160.51 13.02 160.59 13.3C160.66 13.58 160.83 13.81 161.11 13.98C161.39 14.15 161.77 14.23 162.25 14.23C162.67 14.23 163.07 14.14 163.45 13.96C163.82 13.79 164.17 13.52 164.49 13.16L164.2 14.04H167.48Z" fill="url(#paint0_linear_1729_2967)"/>
<defs>
<linearGradient id="paint0_linear_1729_2967" x1="145.981" y1="8.86974" x2="142.242" y2="-14.6715" gradientUnits="userSpaceOnUse">
<stop stop-color="#434054"/>
<stop offset="0.482007" stop-color="#777390"/>
<stop offset="0.883058" stop-color="#CBA6AF"/>
</linearGradient>
</defs>
</svg>
