<svg width="61" height="15" viewBox="0 0 61 15" fill="none" xmlns="http://www.w3.org/2000/svg">
<path fill-rule="evenodd" clip-rule="evenodd" d="M8.77006 8.80997C8.42006 10.11 8.15006 11.03 7.94006 11.57C7.73006 12.11 7.41006 12.6 6.97006 13.05C6.53006 13.5 6.00006 13.84 5.39006 14.08C4.78006 14.32 4.11006 14.44 3.38006 14.44C2.65006 14.44 2.10006 14.33 1.61006 14.1C1.12006 13.87 0.770063 13.53 0.550063 13.08C0.340063 12.63 0.270063 12.14 0.350063 11.6C0.430063 11.07 0.650063 10.14 1.00006 8.80997L1.59006 6.59998C1.94006 5.29998 2.22006 4.37997 2.42006 3.83997C2.63006 3.29997 2.95006 2.80997 3.39006 2.35997C3.83006 1.90997 4.36006 1.56997 4.97006 1.32997C5.58006 1.08997 6.25006 0.969971 6.98006 0.969971C7.67006 0.969971 8.26006 1.07997 8.75006 1.30997C9.24006 1.53997 9.59006 1.87997 9.81006 2.32997C10.0201 2.77997 10.0901 3.26997 10.0101 3.80997C9.93006 4.33997 9.71006 5.26998 9.36006 6.59998L8.77006 8.80997ZM6.55006 4.55997C6.71006 3.95997 6.78006 3.57997 6.76006 3.40997C6.74006 3.23997 6.62006 3.15997 6.42006 3.15997C6.24006 3.15997 6.09006 3.22997 5.96006 3.35997C5.83006 3.49997 5.68006 3.89997 5.50006 4.55997L3.88006 10.59C3.68006 11.34 3.59006 11.8 3.60006 11.98C3.61006 12.16 3.73006 12.24 3.96006 12.24C4.19006 12.24 4.36006 12.14 4.48006 11.94C4.60006 11.74 4.76006 11.26 4.96006 10.5L6.55006 4.55997ZM18.7101 3.56998L15.8701 14.16H12.5901L12.8801 13.28C12.5601 13.64 12.2101 13.91 11.8401 14.08C11.4601 14.26 11.0601 14.35 10.6401 14.35C10.1601 14.35 9.78008 14.27 9.50008 14.1C9.22008 13.93 9.05008 13.7 8.98008 13.42C8.90008 13.14 8.89008 12.84 8.93008 12.54C8.97008 12.23 9.12008 11.63 9.36008 10.72L11.2701 3.57997H14.4901L12.5601 10.79C12.3401 11.61 12.2301 12.1 12.2401 12.26C12.2401 12.41 12.3701 12.49 12.5901 12.49C12.8301 12.49 12.9901 12.41 13.0801 12.25C13.1701 12.09 13.3301 11.58 13.5601 10.71L15.4701 3.58997H18.6901L18.7101 3.56998ZM23.6374 2.16997L23.6401 2.15997V2.16997H23.6374ZM23.6374 2.16997L23.1901 3.82997H24.0601L23.6101 5.50996H22.7401L21.2201 11.18C21.0301 11.88 20.9701 12.26 21.0201 12.35C21.0701 12.43 21.3601 12.47 21.8901 12.47L21.4301 14.18H20.1301C19.4001 14.18 18.8801 14.15 18.5801 14.09C18.2801 14.03 18.0401 13.89 17.8601 13.67C17.6801 13.45 17.6001 13.2 17.6201 12.91C17.6401 12.63 17.7901 11.96 18.0701 10.9L19.5101 5.51997H18.8201L19.2701 3.83997H19.9601L20.4101 2.16997H23.6374ZM30.9 7.56996H27.86L28.19 6.34996C28.3 5.91996 28.35 5.63995 28.32 5.47995C28.29 5.32995 28.18 5.24995 28 5.24995C27.82 5.24995 27.67 5.31995 27.57 5.44995C27.47 5.57995 27.36 5.87995 27.24 6.33995L25.9 11.34C25.8 11.72 25.77 12 25.82 12.19C25.87 12.38 25.98 12.47 26.17 12.47C26.39 12.47 26.56 12.3699 26.69 12.1799C26.82 11.9799 26.96 11.61 27.1 11.06L27.44 9.79996H30.31C30.08 10.65 29.88 11.28 29.71 11.7C29.54 12.12 29.25 12.56 28.83 13C28.41 13.44 27.93 13.7799 27.38 14.0099C26.84 14.2299 26.21 14.35 25.49 14.35C24.58 14.35 23.9 14.19 23.45 13.88C23 13.57 22.74 13.13 22.67 12.57C22.6 12.01 22.7 11.2099 22.98 10.1799L23.79 7.16995C24.03 6.26995 24.3 5.58996 24.61 5.12996C24.91 4.66996 25.41 4.25995 26.1 3.89995C26.79 3.53995 27.55 3.35995 28.4 3.35995C29.25 3.35995 29.91 3.53995 30.41 3.88995C30.91 4.24995 31.19 4.69996 31.24 5.23996C31.29 5.77996 31.18 6.54996 30.92 7.54996L30.9 7.56996ZM38.5301 9.87997L39.2201 7.28996H39.2501C39.4501 6.53996 39.5401 5.97997 39.5401 5.60997C39.5401 5.23997 39.4401 4.87996 39.2501 4.53996C39.0601 4.19996 38.7301 3.90997 38.2701 3.69997C37.8101 3.48997 37.2101 3.37997 36.4901 3.37997C35.6301 3.37997 34.8701 3.54997 34.2301 3.87997C33.5801 4.20997 33.0801 4.65998 32.7201 5.20998C32.3601 5.76998 32.0401 6.53997 31.7801 7.51997L31.0501 10.23C30.8001 11.13 30.6801 11.8 30.6801 12.25C30.6801 12.7 30.7701 13.08 30.9601 13.4C31.1501 13.72 31.4701 13.95 31.9201 14.11C32.3701 14.27 32.9601 14.35 33.6701 14.35C34.3101 14.35 34.9001 14.25 35.4401 14.07C35.9801 13.89 36.4601 13.61 36.8801 13.22C37.3001 12.83 37.6201 12.41 37.8301 11.97C38.0401 11.53 38.2801 10.83 38.5301 9.87997ZM36.4001 5.45998C36.4201 5.60998 36.3601 5.94998 36.2101 6.48997V6.49997L34.9001 11.38C34.7801 11.83 34.6701 12.13 34.5701 12.27C34.4701 12.41 34.3101 12.48 34.1301 12.48C33.9501 12.48 33.8401 12.4 33.8201 12.25C33.8001 12.1 33.8601 11.77 33.9901 11.27L35.2701 6.48997C35.4101 5.93997 35.5401 5.59998 35.6401 5.45998C35.7401 5.31998 35.8901 5.24997 36.0801 5.24997C36.2701 5.24997 36.3801 5.31998 36.4001 5.45998ZM44.46 3.56998L44.13 4.57997C44.49 4.17997 44.87 3.87996 45.27 3.67996C45.67 3.47996 46.09 3.37997 46.53 3.37997C47.39 3.37997 47.96 3.77997 48.24 4.57997C48.62 4.17997 49.01 3.87996 49.4 3.67996C49.79 3.47996 50.2 3.37997 50.61 3.37997C51.16 3.37997 51.58 3.50997 51.86 3.77997C52.15 4.04997 52.29 4.36996 52.29 4.75996C52.29 5.14996 52.17 5.76997 51.94 6.63997L49.92 14.16H46.79L48.64 7.25996C48.88 6.34996 49 5.79997 49 5.57997C49 5.36997 48.88 5.25996 48.66 5.25996C48.44 5.25996 48.26 5.36997 48.13 5.57997C48.01 5.78997 47.82 6.34996 47.58 7.25996L45.73 14.16H42.6L44.4 7.42996C44.68 6.38996 44.82 5.76997 44.82 5.55997C44.82 5.34997 44.71 5.24997 44.48 5.24997C44.34 5.24997 44.2 5.29997 44.07 5.40997C43.94 5.51997 43.85 5.64997 43.8 5.80997C43.75 5.96997 43.65 6.29997 43.52 6.80997L41.55 14.15H38.42L41.26 3.55997H44.44L44.46 3.56998ZM55.54 9.04999H59.71V9.05998L60.09 7.65999C60.38 6.62999 60.47 5.83999 60.38 5.26999C60.3 4.69999 60.01 4.23998 59.51 3.89998C59.01 3.55998 58.3101 3.38998 57.41 3.38998C56.67 3.38998 55.98 3.53999 55.33 3.81999C54.68 4.10999 54.16 4.51999 53.77 5.04999C53.38 5.57999 53.06 6.30999 52.81 7.23999L51.98 10.33C51.7701 11.12 51.67 11.72 51.67 12.13C51.67 12.54 51.77 12.92 51.97 13.26C52.17 13.6 52.51 13.88 52.97 14.07C53.43 14.26 53.99 14.36 54.69 14.36C55.39 14.36 56 14.26 56.52 14.06C57.04 13.86 57.5 13.56 57.91 13.16C58.32 12.76 58.61 12.38 58.79 12.03C58.97 11.68 59.14 11.17 59.32 10.52L59.53 9.73999H56.47L56.1 11.14C55.96 11.66 55.82 12.02 55.69 12.2C55.56 12.39 55.38 12.48 55.13 12.48C54.94 12.48 54.82 12.41 54.79 12.27C54.75 12.13 54.8 11.82 54.93 11.34L55.54 9.04999ZM57.15 6.55998L56.94 7.32999H56.01L56.22 6.55998C56.38 5.95998 56.5 5.59999 56.59 5.45999C56.68 5.32999 56.84 5.25998 57.06 5.25998C57.24 5.25998 57.33 5.33998 57.35 5.49998C57.36 5.65998 57.3 6.00998 57.15 6.55998Z" fill="url(#paint0_linear_1729_3007)"/>
<defs>
<linearGradient id="paint0_linear_1729_3007" x1="51.8253" y1="8.17172" x2="44.2955" y2="-10.4581" gradientUnits="userSpaceOnUse">
<stop stop-color="#434054"/>
<stop offset="0.482007" stop-color="#777390"/>
<stop offset="0.883058" stop-color="#CBA6AF"/>
</linearGradient>
</defs>
</svg>
