<svg width="104" height="14" viewBox="0 0 104 14" fill="none" xmlns="http://www.w3.org/2000/svg">
<path fill-rule="evenodd" clip-rule="evenodd" d="M81.4 5.03H78.04L78.35 3.86C78.55 3.12 78.64 2.66 78.63 2.47C78.62 2.28 78.49 2.19 78.25 2.19C78.04 2.19 77.88 2.27 77.76 2.43C77.64 2.59 77.5 3 77.32 3.66L75.66 9.86C75.5 10.44 75.44 10.82 75.47 11C75.49 11.18 75.62 11.28 75.84 11.28C76.09 11.28 76.28 11.18 76.42 10.97C76.56 10.76 76.72 10.36 76.88 9.76L77.29 8.23H76.61L77.14 6.27H81.07L79.21 13.2H77.1L77.04 12.28C76.7 12.68 76.33 12.98 75.93 13.18C75.53 13.38 75.09 13.48 74.62 13.48C74.06 13.48 73.56 13.34 73.15 13.07C72.74 12.8 72.45 12.46 72.3 12.05C72.15 11.65 72.11 11.22 72.16 10.78C72.22 10.34 72.36 9.67 72.6 8.78L73.63 4.94C73.96 3.71 74.27 2.81 74.55 2.25C74.83 1.69 75.35 1.18 76.11 0.71C76.87 0.24 77.74 0.01 78.74 0.01C79.74 0.01 80.49 0.21 81.03 0.62C81.57 1.02 81.87 1.5 81.91 2.06C81.96 2.62 81.84 3.42 81.56 4.48L81.41 5.04L81.4 5.03ZM6.84 0.27H3.46L0 13.18H3.36L4.75 7.98H5.65C6.38 7.98 7 7.88 7.51 7.68C8.02 7.48 8.41 7.19 8.68 6.81C8.95 6.44 9.2 5.83 9.42 5.01L9.72 3.88C9.94 3.07 10.05 2.48 10.07 2.09C10.08 1.71 10 1.38 9.83 1.11C9.66 0.84 9.34 0.63 8.89 0.49C8.44 0.34 7.76 0.27 6.84 0.27ZM5.35 5.77L6.23 2.48L6.22 2.47C6.66 2.47 6.93 2.54 7.03 2.67C7.14 2.8 7.13 3.09 7.01 3.53L6.73 4.59C6.6 5.07 6.46 5.39 6.3 5.54C6.14 5.69 5.91 5.77 5.6 5.77H5.35ZM13.67 3.99L14.17 2.6H14.16H10.94L8.11 13.2H11.33L12.45 9.02C12.72 7.99 12.93 7.34 13.07 7.05C13.21 6.76 13.44 6.54 13.76 6.38C14.09 6.22 14.54 6.14 15.13 6.14L16.13 2.41C15.22 2.46 14.4 2.99 13.67 3.99ZM23.09 6.32L22.4 8.91C22.15 9.86 21.91 10.56 21.7 11C21.49 11.44 21.17 11.86 20.75 12.25C20.33 12.64 19.85 12.92 19.31 13.1C18.77 13.28 18.18 13.38 17.54 13.38C16.83 13.38 16.24 13.3 15.79 13.14C15.34 12.98 15.02 12.75 14.83 12.43C14.64 12.11 14.55 11.73 14.55 11.28C14.55 10.83 14.67 10.16 14.92 9.26L15.65 6.55C15.91 5.57 16.23 4.8 16.59 4.24C16.95 3.69 17.45 3.24 18.1 2.91C18.74 2.58 19.5 2.41 20.36 2.41C21.08 2.41 21.68 2.52 22.14 2.73C22.6 2.94 22.93 3.23 23.12 3.57C23.31 3.91 23.41 4.27 23.41 4.64C23.41 5.01 23.32 5.57 23.12 6.32H23.09ZM20.08 5.52C20.23 4.98 20.29 4.64 20.27 4.49C20.25 4.35 20.14 4.28 19.95 4.28C19.76 4.28 19.61 4.35 19.51 4.49C19.41 4.63 19.28 4.97 19.14 5.52L17.86 10.3C17.73 10.8 17.67 11.13 17.69 11.28C17.71 11.43 17.82 11.51 18 11.51C18.18 11.51 18.34 11.44 18.44 11.3C18.54 11.16 18.65 10.86 18.77 10.41L20.08 5.53V5.52ZM28.18 3.33L29 0.27H28.99H25.77L22.32 13.19H25.34L25.76 12.39C25.94 12.72 26.18 12.96 26.46 13.13C26.74 13.3 27.07 13.38 27.45 13.38C27.98 13.38 28.47 13.24 28.93 12.96C29.38 12.68 29.71 12.35 29.92 11.97C30.12 11.59 30.33 11.01 30.54 10.23L31.82 5.46C32.03 4.68 32.15 4.17 32.18 3.93C32.21 3.69 32.17 3.45 32.07 3.2C31.96 2.95 31.77 2.76 31.48 2.62C31.2 2.48 30.83 2.41 30.39 2.41C30 2.41 29.63 2.49 29.26 2.64C28.89 2.79 28.53 3.02 28.18 3.33ZM28.73 4.54C28.76 4.7 28.7 5.06 28.55 5.61L27.36 10.07C27.19 10.7 27.06 11.09 26.95 11.26C26.85 11.43 26.69 11.51 26.49 11.51C26.29 11.51 26.18 11.43 26.16 11.27C26.13 11.11 26.2 10.75 26.35 10.18L27.57 5.62C27.72 5.02 27.85 4.66 27.95 4.51C28.05 4.36 28.19 4.29 28.39 4.29C28.59 4.29 28.7 4.38 28.73 4.54ZM37.58 0.27L34.12 13.19H30.8L34.26 0.27H37.58ZM39.78 8.08H43.95V8.09L44.33 6.69C44.62 5.66 44.71 4.87 44.62 4.3C44.54 3.73 44.25 3.27 43.75 2.93C43.25 2.59 42.55 2.42 41.65 2.42C40.91 2.42 40.22 2.57 39.57 2.85C38.92 3.14 38.4 3.55 38.01 4.08C37.62 4.61 37.3 5.34 37.05 6.27L36.22 9.36C36.01 10.15 35.91 10.75 35.91 11.16C35.91 11.57 36.01 11.95 36.21 12.29C36.41 12.63 36.75 12.91 37.21 13.1C37.67 13.29 38.23 13.39 38.93 13.39C39.63 13.39 40.24 13.29 40.76 13.09C41.28 12.89 41.74 12.59 42.15 12.19C42.56 11.79 42.85 11.41 43.03 11.06C43.21 10.71 43.38 10.2 43.56 9.55L43.77 8.77H40.71L40.34 10.17C40.2 10.69 40.06 11.05 39.93 11.23C39.8 11.42 39.62 11.51 39.37 11.51C39.18 11.51 39.06 11.44 39.03 11.3C38.99 11.16 39.04 10.85 39.17 10.37L39.78 8.08ZM41.39 5.59L41.18 6.36H40.25L40.46 5.59C40.62 4.99 40.74 4.63 40.83 4.49C40.92 4.36 41.08 4.29 41.3 4.29C41.48 4.29 41.57 4.37 41.59 4.53C41.6 4.69 41.54 5.04 41.39 5.59ZM49.65 2.6L49.32 3.61C49.68 3.21 50.06 2.91 50.46 2.71C50.86 2.51 51.28 2.41 51.72 2.41C52.58 2.41 53.15 2.81 53.43 3.61C53.81 3.21 54.2 2.91 54.59 2.71C54.98 2.51 55.39 2.41 55.8 2.41C56.35 2.41 56.77 2.54 57.05 2.81C57.34 3.08 57.48 3.4 57.48 3.79C57.48 4.18 57.36 4.8 57.13 5.67L55.11 13.19H51.98L53.83 6.29C54.07 5.38 54.19 4.83 54.19 4.61C54.19 4.4 54.07 4.29 53.85 4.29C53.63 4.29 53.45 4.4 53.32 4.61C53.2 4.82 53.01 5.38 52.77 6.29L50.92 13.19H47.79L49.59 6.46C49.87 5.42 50.01 4.8 50.01 4.59C50.01 4.38 49.9 4.28 49.67 4.28C49.53 4.28 49.39 4.33 49.26 4.44C49.13 4.55 49.04 4.68 48.99 4.84C48.94 5 48.84 5.33 48.71 5.84L46.74 13.18H43.61L46.45 2.59H49.63L49.65 2.6ZM69.0435 8.30455L69.05 8.28L69.07 8.29L69.0435 8.30455ZM67.01 9.42L69.0435 8.30455L68.47 10.46L67.42 11.03L67.97 13.18H64.99L64.79 12.46C63.61 13.12 62.58 13.45 61.68 13.45C60.78 13.45 60.11 13.14 59.77 12.52C59.43 11.9 59.38 11.15 59.62 10.27C59.81 9.57 60.1 9.02 60.51 8.62C60.91 8.22 61.45 7.9 62.11 7.65C61.42 7.04 61.22 6.21 61.5 5.17C61.74 4.27 62.24 3.55 62.99 3C63.74 2.45 64.65 2.18 65.72 2.18C66.68 2.18 67.36 2.45 67.77 2.99C68.18 3.53 68.27 4.21 68.05 5.04C67.82 5.91 67.27 6.69 66.42 7.36L67.01 9.42ZM63.5 9.27L64.07 11.01C63.67 11.24 63.34 11.35 63.08 11.35C62.84 11.35 62.67 11.27 62.59 11.12C62.51 10.97 62.51 10.74 62.59 10.44C62.7 10.02 63 9.63 63.5 9.27ZM65.59 4.66C65.47 5.09 65.17 5.54 64.68 6.02V6.03C64.4 5.61 64.33 5.14 64.46 4.64C64.53 4.4 64.62 4.22 64.74 4.1C64.87 3.98 65.01 3.92 65.19 3.92C65.38 3.92 65.51 3.99 65.57 4.15C65.63 4.3 65.64 4.47 65.59 4.66ZM88.86 8.91L89.55 6.32H89.58C89.78 5.57 89.87 5.01 89.87 4.64C89.87 4.27 89.77 3.91 89.58 3.57C89.39 3.23 89.06 2.94 88.6 2.73C88.14 2.52 87.54 2.41 86.82 2.41C85.96 2.41 85.2 2.58 84.56 2.91C83.91 3.24 83.41 3.69 83.05 4.24C82.69 4.8 82.37 5.57 82.11 6.55L81.38 9.26C81.13 10.16 81.01 10.83 81.01 11.28C81.01 11.73 81.1 12.11 81.29 12.43C81.48 12.75 81.8 12.98 82.25 13.14C82.7 13.3 83.29 13.38 84 13.38C84.64 13.38 85.23 13.28 85.77 13.1C86.31 12.92 86.79 12.64 87.21 12.25C87.63 11.86 87.95 11.44 88.16 11C88.37 10.56 88.61 9.86 88.86 8.91ZM86.73 4.49C86.75 4.64 86.69 4.98 86.54 5.52V5.53L85.23 10.41C85.11 10.86 85 11.16 84.9 11.3C84.8 11.44 84.64 11.51 84.46 11.51C84.28 11.51 84.17 11.43 84.15 11.28C84.13 11.13 84.19 10.8 84.32 10.3L85.6 5.52C85.74 4.97 85.87 4.63 85.97 4.49C86.07 4.35 86.22 4.28 86.41 4.28C86.6 4.28 86.71 4.35 86.73 4.49ZM93.39 6.7H90.37L90.56 5.99C90.78 5.17 91.04 4.54 91.35 4.1C91.66 3.66 92.14 3.26 92.8 2.92C93.46 2.58 94.25 2.41 95.15 2.41C96.24 2.41 97.01 2.6 97.46 2.99C97.91 3.38 98.12 3.85 98.08 4.41C98.04 4.97 97.79 6.13 97.32 7.88L95.9 13.19H92.76L93.01 12.25C92.71 12.63 92.38 12.91 92.02 13.1C91.66 13.29 91.26 13.38 90.83 13.38C90.27 13.38 89.79 13.22 89.4 12.91C89.01 12.59 88.96 11.9 89.25 10.83L89.48 9.96C89.69 9.17 89.96 8.63 90.29 8.34C90.62 8.05 91.33 7.72 92.42 7.33C93.59 6.91 94.23 6.64 94.34 6.49C94.45 6.35 94.57 6.05 94.69 5.61C94.84 5.06 94.89 4.7 94.86 4.53C94.82 4.36 94.71 4.28 94.52 4.28C94.3 4.28 94.15 4.35 94.06 4.49C93.97 4.63 93.84 5 93.69 5.59L93.39 6.7ZM92.87 9.1C93.0188 8.84212 93.3938 8.53505 94.0049 8.15929L93.43 10.32C93.28 10.86 93.16 11.19 93.07 11.31C92.98 11.44 92.83 11.5 92.63 11.5C92.42 11.5 92.3 11.42 92.27 11.26C92.24 11.1 92.3 10.75 92.45 10.2C92.58 9.72 92.72 9.36 92.87 9.1ZM100.33 13.19L103.79 0.27H100.47L97.01 13.19H100.33Z" fill="url(#paint0_linear_1729_3029)"/>
<defs>
<linearGradient id="paint0_linear_1729_3029" x1="88.9576" y1="7.21174" x2="84.1489" y2="-13.3361" gradientUnits="userSpaceOnUse">
<stop stop-color="#434054"/>
<stop offset="0.482007" stop-color="#777390"/>
<stop offset="0.883058" stop-color="#CBA6AF"/>
</linearGradient>
</defs>
</svg>
