<svg width="102" height="16" viewBox="0 0 102 16" fill="none" xmlns="http://www.w3.org/2000/svg">
<path fill-rule="evenodd" clip-rule="evenodd" d="M9.71009 4.46999H6.59009L6.85009 3.50999C6.97009 3.05999 7.01009 2.77999 6.96009 2.65999C6.91009 2.53999 6.8001 2.47999 6.6101 2.47999C6.41009 2.47999 6.23009 2.55999 6.09009 2.72999C5.94009 2.89999 5.82009 3.14999 5.73009 3.47999C5.61009 3.90999 5.58009 4.23998 5.64009 4.44998C5.69009 4.66998 5.9401 4.92998 6.3801 5.23998C7.6401 6.12998 8.38009 6.85998 8.62009 7.41998C8.86009 7.98998 8.8001 8.90998 8.4701 10.17C8.2201 11.09 7.93009 11.77 7.60009 12.21C7.27009 12.65 6.7501 13.01 6.0601 13.31C5.3701 13.61 4.6101 13.75 3.7901 13.75C2.8901 13.75 2.17009 13.58 1.62009 13.24C1.08009 12.9 0.770096 12.47 0.720096 11.94C0.660096 11.41 0.770093 10.67 1.03009 9.69998L1.26009 8.84998H4.3801L3.96009 10.42C3.83009 10.9 3.79009 11.22 3.84009 11.35C3.89009 11.48 4.03009 11.56 4.25009 11.56C4.47009 11.56 4.66009 11.47 4.82009 11.3C4.98009 11.12 5.10009 10.86 5.19009 10.52C5.39009 9.75998 5.42009 9.25998 5.28009 9.02998C5.13009 8.79998 4.7101 8.39999 4.0201 7.85999C3.3301 7.30999 2.89009 6.90999 2.68009 6.65999C2.47009 6.40999 2.34009 6.05999 2.28009 5.61999C2.22009 5.17999 2.2801 4.60998 2.4701 3.92999C2.7401 2.93999 3.06009 2.21999 3.43009 1.75999C3.80009 1.29999 4.31009 0.939987 4.94009 0.689987C5.57009 0.429987 6.29009 0.299988 7.09009 0.299988C7.96009 0.299988 8.67009 0.439986 9.21009 0.719986C9.75009 0.999986 10.0601 1.35999 10.1501 1.78999C10.2301 2.21999 10.1401 2.94999 9.8601 3.96999L9.7201 4.47999L9.71009 4.46999ZM14.6902 2.89L11.8502 13.48H8.53015L11.3702 2.89H14.6902ZM15.3102 0.559998L14.8602 2.24H11.5402L11.9902 0.559998H15.3102ZM23.1774 2.90002L23.1801 2.89001L23.1901 2.90002H23.1774ZM20.1901 2.90002H23.1774L20.9901 11.05C20.7001 12.15 20.4801 12.86 20.3401 13.18C20.2001 13.5 19.9301 13.84 19.5301 14.2C19.1301 14.56 18.6201 14.83 18.0201 15.02C17.4201 15.21 16.7001 15.3 15.8701 15.3C14.8401 15.3 14.0701 15.13 13.5401 14.78C13.0101 14.43 12.8701 13.75 13.1201 12.73H16.2501C16.1201 13.2 16.2301 13.43 16.5701 13.43C16.8201 13.43 17.0001 13.36 17.1201 13.21C17.2401 13.07 17.3601 12.77 17.4801 12.31L17.6901 11.51C17.3501 11.76 17.0101 11.95 16.6701 12.08C16.3301 12.21 15.9901 12.27 15.6601 12.27C15.0801 12.27 14.6301 12.15 14.3201 11.92C14.0101 11.69 13.8301 11.38 13.8001 11C13.7601 10.62 13.8401 10.08 14.0301 9.38001L15.0601 5.53001C15.3301 4.52001 15.7001 3.80002 16.1801 3.36002C16.6601 2.92002 17.2701 2.70001 18.0101 2.70001C18.4101 2.70001 18.7601 2.78001 19.0501 2.95001C19.3401 3.12001 19.5701 3.36001 19.7401 3.70001L20.1901 2.90002ZM19.3601 4.77001C19.3801 4.91001 19.3301 5.22001 19.2001 5.70001H19.1901L18.3101 8.98002C18.1401 9.58002 18.0101 9.97001 17.9001 10.14C17.7901 10.31 17.6301 10.39 17.4201 10.39C17.2301 10.39 17.1301 10.32 17.1101 10.18C17.0901 10.04 17.1401 9.73002 17.2701 9.26002L18.2201 5.70001C18.3401 5.25001 18.4601 4.95002 18.5801 4.80002C18.7001 4.65002 18.8501 4.57001 19.0401 4.57001C19.2301 4.57001 19.3401 4.64001 19.3601 4.77001ZM27.6101 2.89001L27.6068 2.90002H24.3301L21.4901 13.49H24.7101L26.6301 6.33002C26.8401 5.53002 27.0001 5.05002 27.1101 4.86002C27.2201 4.67002 27.3901 4.58002 27.6201 4.58002C27.8301 4.58002 27.9501 4.66002 27.9501 4.82001C27.9501 4.98001 27.8601 5.42002 27.6601 6.15002L25.7001 13.48H28.9201L30.9101 6.06001C31.1601 5.14001 31.2901 4.48002 31.2901 4.08002C31.3001 3.68002 31.1601 3.35001 30.8801 3.09001C30.6001 2.83001 30.1801 2.70001 29.6301 2.70001C29.1901 2.70001 28.7701 2.79001 28.3801 2.99001C27.9901 3.19001 27.6301 3.48002 27.2901 3.87002L27.6068 2.90002H27.6101V2.89001ZM37.4101 13.48L40.2501 2.89001H40.2301H37.0101L35.1001 10.02C34.8701 10.89 34.7101 11.4 34.6201 11.56C34.5301 11.72 34.3701 11.8 34.1301 11.8C33.9101 11.8 33.7801 11.72 33.7801 11.57C33.7701 11.41 33.8801 10.92 34.1001 10.1L36.0301 2.89001H32.8101L30.9001 10.03C30.6601 10.94 30.5201 11.54 30.4701 11.85C30.4301 12.15 30.4401 12.45 30.5201 12.73C30.5901 13.01 30.7701 13.24 31.0401 13.41C31.3201 13.59 31.7001 13.67 32.1801 13.67C32.6001 13.67 33.0001 13.58 33.3801 13.4C33.7501 13.22 34.1001 12.96 34.4201 12.6L34.1301 13.48H37.4101ZM44.3801 3.83002C44.7701 3.45002 45.1601 3.17002 45.5601 2.98002C45.9601 2.79002 46.3601 2.70001 46.7701 2.70001C47.2701 2.70001 47.6701 2.84001 47.9601 3.10001C48.2501 3.36001 48.4001 3.68001 48.3901 4.03001C48.3901 4.38001 48.2701 4.98001 48.0501 5.82001L46.8501 10.28C46.5901 11.24 46.3501 11.93 46.1301 12.33C45.9101 12.74 45.5901 13.06 45.1701 13.3C44.7501 13.54 44.2901 13.66 43.7901 13.66C43.3901 13.66 43.0501 13.57 42.7601 13.38C42.4701 13.19 42.2301 12.92 42.0501 12.55L41.4001 14.98H38.1801L41.4201 2.88001H44.7001L44.6901 2.89001L44.3801 3.83002ZM44.7801 5.97002C44.9601 5.32002 45.0401 4.92001 45.0301 4.78001C45.0201 4.64001 44.9001 4.57001 44.6901 4.57001C44.4801 4.57001 44.3201 4.65001 44.2101 4.81001C44.1101 4.97001 43.9701 5.35002 43.8101 5.97002L42.6301 10.36C42.4601 11 42.3801 11.4 42.4101 11.56C42.4301 11.72 42.5501 11.8 42.7601 11.8C42.9701 11.8 43.1201 11.73 43.2101 11.58C43.3001 11.43 43.4201 11.08 43.5701 10.51L44.7901 5.97002H44.7801ZM59.8636 8.59455L59.8701 8.57L59.8901 8.58L59.8636 8.59455ZM57.8301 9.71L59.8636 8.59455L59.2901 10.75L58.2401 11.32L58.7901 13.47H55.8101L55.6101 12.75C54.4301 13.41 53.4001 13.74 52.5001 13.74C51.6001 13.74 50.9301 13.43 50.5901 12.81C50.2501 12.19 50.2001 11.44 50.4401 10.56C50.6301 9.86 50.9201 9.31 51.3301 8.91C51.7301 8.51 52.2701 8.19 52.9301 7.94C52.2401 7.33 52.0401 6.5 52.3201 5.46C52.5601 4.56 53.0601 3.84 53.8101 3.29C54.5601 2.74 55.4701 2.47 56.5401 2.47C57.5001 2.47 58.1801 2.74 58.5901 3.28C59.0001 3.82 59.0901 4.5 58.8701 5.33C58.6401 6.2 58.0901 6.98 57.2401 7.65L57.8301 9.71ZM54.3201 9.56L54.8901 11.3C54.4901 11.53 54.1601 11.64 53.9001 11.64C53.6601 11.64 53.4901 11.56 53.4101 11.41C53.3301 11.26 53.3301 11.03 53.4101 10.73C53.5201 10.31 53.8201 9.92 54.3201 9.56ZM56.4101 4.95C56.2901 5.38 55.9901 5.83 55.5001 6.31L55.4901 6.32C55.2101 5.9 55.1401 5.43 55.2701 4.93C55.3401 4.69 55.4301 4.51 55.5501 4.39C55.6801 4.27 55.8201 4.21 56.0001 4.21C56.2001 4.21 56.3301 4.29 56.3901 4.44C56.4501 4.59 56.4601 4.76 56.4101 4.95ZM73.5101 0.559998L70.0501 13.48H66.6901L68.1401 8.05H67.1301L65.6801 13.48H62.3201L65.7801 0.559998H69.1401L67.9001 5.18H68.9101L70.1501 0.559998H73.5101ZM79.7501 9.20001L80.4401 6.61002H80.4601C80.6601 5.85002 80.7501 5.30002 80.7501 4.93002C80.7501 4.56002 80.6501 4.21002 80.4601 3.86002C80.2701 3.52002 79.9401 3.23001 79.4801 3.02001C79.0201 2.81001 78.4201 2.70001 77.7001 2.70001C76.8401 2.70001 76.0801 2.87001 75.4401 3.20001C74.7901 3.53001 74.2901 3.98001 73.9301 4.53001C73.5701 5.09001 73.2501 5.86001 72.9901 6.84001L72.2601 9.55002C72.0201 10.45 71.8901 11.12 71.8901 11.57C71.8901 12.02 71.9801 12.4 72.1701 12.72C72.3601 13.04 72.6801 13.27 73.1301 13.43C73.5801 13.59 74.1701 13.67 74.8801 13.67C75.5201 13.67 76.1101 13.57 76.6501 13.39C77.1901 13.21 77.6701 12.93 78.0901 12.54C78.5101 12.15 78.8301 11.73 79.0401 11.29C79.2601 10.85 79.4901 10.15 79.7501 9.20001ZM77.6201 4.78001C77.6401 4.93001 77.5801 5.27001 77.4301 5.81001V5.82001L76.1201 10.7C76.0001 11.15 75.8901 11.45 75.7901 11.59C75.6901 11.73 75.5301 11.8 75.3501 11.8C75.1701 11.8 75.0601 11.72 75.0401 11.57C75.0201 11.42 75.0801 11.09 75.2101 10.59L76.4901 5.81001C76.6301 5.26001 76.7601 4.92001 76.8601 4.78001C76.9601 4.64001 77.1101 4.57001 77.3001 4.57001C77.4901 4.57001 77.6001 4.64001 77.6201 4.78001ZM85.6801 2.89001L85.3501 3.90002C85.7101 3.50002 86.0901 3.20002 86.4901 3.00002C86.8901 2.80002 87.3101 2.70001 87.7501 2.70001C88.6101 2.70001 89.1801 3.10002 89.4601 3.90002C89.8401 3.50002 90.2201 3.20002 90.6201 3.00002C91.0101 2.80002 91.4201 2.70001 91.8301 2.70001C92.3801 2.70001 92.8001 2.83001 93.0801 3.10001C93.3701 3.37001 93.5101 3.69002 93.5101 4.08002C93.5101 4.47002 93.3902 5.09001 93.1601 5.96001L91.1401 13.48H88.0101L89.8601 6.58002C90.1001 5.68002 90.2201 5.12002 90.2201 4.90002C90.2201 4.69002 90.1001 4.58002 89.8801 4.58002C89.6601 4.58002 89.4801 4.69002 89.3501 4.90002C89.2301 5.11002 89.0401 5.67002 88.8001 6.58002L86.9501 13.48H83.8201L85.6201 6.75002C85.9001 5.71002 86.0401 5.09001 86.0401 4.88001C86.0401 4.67001 85.9301 4.57001 85.7101 4.57001C85.5701 4.57001 85.4301 4.62002 85.3001 4.73002C85.1702 4.84002 85.0801 4.97001 85.0301 5.13001C84.9801 5.29001 84.8801 5.62001 84.7501 6.13001L82.7801 13.47H79.6501L82.4901 2.88001H85.6701L85.6801 2.89001ZM96.7601 8.37H100.93L100.95 8.34999L101.33 6.94999C101.61 5.91999 101.7 5.12999 101.61 4.55999C101.53 3.99999 101.24 3.53999 100.74 3.19999C100.24 2.84999 99.5401 2.67999 98.6401 2.67999C97.9001 2.67999 97.2001 2.81999 96.5601 3.10999C95.9101 3.39999 95.3901 3.79999 95.0001 4.33999C94.6101 4.86999 94.2901 5.60999 94.0401 6.52999L93.2102 9.62C93.0002 10.41 92.9001 11.01 92.9001 11.42C92.9001 11.83 93.0001 12.21 93.2001 12.55C93.4001 12.89 93.7301 13.16 94.2001 13.36C94.6601 13.55 95.2201 13.65 95.9201 13.65C96.6201 13.65 97.2301 13.55 97.7501 13.35C98.2701 13.15 98.7301 12.85 99.1401 12.45C99.5501 12.06 99.8401 11.68 100.02 11.33C100.2 10.98 100.37 10.47 100.55 9.81999L100.76 9.03999H97.7001L97.3301 10.44C97.1901 10.97 97.0501 11.33 96.9201 11.51C96.7801 11.7 96.6002 11.79 96.3502 11.79C96.1601 11.79 96.0401 11.72 96.0101 11.58C95.9701 11.45 96.0201 11.14 96.1501 10.66L96.7601 8.37ZM98.3701 5.87999L98.1601 6.64999H97.2301L97.4401 5.87999C97.6002 5.27999 97.7201 4.91999 97.8101 4.77999C97.9001 4.64999 98.0601 4.57999 98.2801 4.57999C98.4601 4.57999 98.5602 4.65999 98.5702 4.81999C98.5802 4.97999 98.5201 5.32999 98.3701 5.87999Z" fill="url(#paint0_linear_1729_2955)"/>
<defs>
<linearGradient id="paint0_linear_1729_2955" x1="87.2187" y1="8.31977" x2="81.1845" y2="-14.1984" gradientUnits="userSpaceOnUse">
<stop stop-color="#434054"/>
<stop offset="0.482007" stop-color="#777390"/>
<stop offset="0.883058" stop-color="#CBA6AF"/>
</linearGradient>
</defs>
</svg>
