<svg width="115" height="16" viewBox="0 0 115 16" fill="none" xmlns="http://www.w3.org/2000/svg">
<path fill-rule="evenodd" clip-rule="evenodd" d="M6.50001 4.39021H9.62001L9.63001 4.40022L9.77001 3.89021C10.05 2.87021 10.14 2.14021 10.06 1.71021C9.97001 1.28021 9.66001 0.920215 9.12001 0.640215C8.58001 0.360215 7.87001 0.220215 7.00001 0.220215C6.20001 0.220215 5.48001 0.350216 4.85001 0.610216C4.22001 0.860216 3.71001 1.22022 3.34001 1.68022C2.97001 2.14022 2.65001 2.86021 2.38001 3.85021C2.19001 4.53021 2.13001 5.10022 2.19001 5.54022C2.25001 5.98022 2.39001 6.33022 2.59001 6.58022C2.80001 6.83022 3.24001 7.23021 3.93001 7.78021C4.62001 8.32021 5.04001 8.72022 5.19001 8.95022C5.33001 9.18022 5.30001 9.68021 5.10001 10.4402C5.01001 10.7802 4.89001 11.0402 4.73001 11.2202C4.57001 11.3902 4.38001 11.4802 4.16001 11.4802C3.94001 11.4802 3.80001 11.4102 3.75001 11.2702C3.70001 11.1402 3.74001 10.8202 3.87001 10.3402L4.29001 8.77022H1.17001L0.940007 9.62021C0.680007 10.5902 0.570008 11.3302 0.630008 11.8602C0.680008 12.3902 0.990007 12.8202 1.53001 13.1602C2.07001 13.5002 2.79001 13.6702 3.69001 13.6702C4.51001 13.6702 5.26001 13.5302 5.96001 13.2302C6.65001 12.9302 7.17001 12.5702 7.50001 12.1302C7.83001 11.6902 8.12001 11.0102 8.37001 10.0902C8.70001 8.83022 8.76001 7.91022 8.52001 7.34022C8.28001 6.78022 7.54001 6.05022 6.28001 5.16022C5.84001 4.85022 5.59001 4.59021 5.54001 4.37021C5.49001 4.16021 5.51001 3.83022 5.63001 3.40022C5.72001 3.07022 5.84001 2.82022 5.99001 2.65022C6.14001 2.48022 6.32001 2.40022 6.52001 2.40022C6.71001 2.40022 6.82001 2.46022 6.87001 2.58022C6.92001 2.70022 6.88001 2.98022 6.76001 3.43022L6.50001 4.39021ZM15.0473 1.4099L15.05 1.3999V1.4099H15.0473ZM15.0473 1.4099L14.6 3.0699H15.47L15.02 4.7499H14.15L12.63 10.4199C12.44 11.1199 12.38 11.4999 12.43 11.5899C12.48 11.6699 12.77 11.7099 13.3 11.7099L12.84 13.4199H11.54C10.81 13.4199 10.29 13.3899 9.98998 13.3299C9.68998 13.2699 9.44998 13.1299 9.26998 12.9099C9.08998 12.6899 9.00998 12.4399 9.02998 12.1499C9.04998 11.8599 9.19998 11.1999 9.47998 10.1399L10.92 4.7599H10.23L10.68 3.0799H11.37L11.82 1.4099H15.0473ZM18.04 6.90986H15.02L15.21 6.19986C15.43 5.37986 15.69 4.74986 16 4.29986C16.31 3.85986 16.79 3.45986 17.45 3.11986C18.11 2.77986 18.9 2.60986 19.8 2.60986C20.89 2.60986 21.66 2.79986 22.11 3.18986C22.56 3.57986 22.77 4.04986 22.73 4.60986C22.69 5.16986 22.44 6.32986 21.97 8.07986L20.55 13.3899H17.41L17.66 12.4499C17.36 12.8299 17.03 13.1099 16.67 13.2999C16.31 13.4899 15.91 13.5799 15.48 13.5799C14.92 13.5799 14.44 13.4199 14.05 13.1099C13.66 12.7999 13.61 12.0999 13.9 11.0299L14.13 10.1599C14.34 9.36986 14.61 8.82986 14.94 8.53986C15.27 8.24986 15.98 7.91986 17.07 7.53986C18.24 7.11986 18.88 6.84986 18.99 6.69986C19.1 6.55986 19.22 6.25986 19.34 5.81986C19.49 5.26986 19.54 4.90986 19.51 4.73986C19.47 4.56986 19.36 4.48986 19.17 4.48986C18.95 4.48986 18.8 4.55986 18.71 4.69986C18.62 4.83986 18.49 5.20986 18.34 5.79986L18.04 6.90986ZM17.52 9.30986C17.6688 9.05199 18.0438 8.74492 18.6549 8.36915L18.08 10.5299C17.93 11.0699 17.81 11.3899 17.72 11.5199C17.63 11.6499 17.49 11.7099 17.28 11.7099C17.07 11.7099 16.95 11.6299 16.92 11.4699C16.89 11.3099 16.95 10.9599 17.1 10.4099C17.23 9.92986 17.37 9.55986 17.52 9.30986ZM27.7064 2.82012L27.71 2.81012L27.72 2.82012H27.7064ZM27.7064 2.82012L27.21 4.20012C27.95 3.20012 28.77 2.67012 29.67 2.62012L28.67 6.35012C28.08 6.35012 27.63 6.43012 27.31 6.59012C26.99 6.75012 26.76 6.97012 26.62 7.26012C26.48 7.55012 26.27 8.20012 26 9.23012L24.88 13.4101H21.66L24.5 2.82012H27.7064ZM34.41 1.3999L34.4073 1.4099H31.18L30.73 3.0799H30.04L29.59 4.7599H30.28L28.84 10.1399C28.56 11.1999 28.41 11.8599 28.39 12.1499C28.37 12.4399 28.45 12.6899 28.63 12.9099C28.81 13.1299 29.05 13.2699 29.35 13.3299C29.65 13.3899 30.17 13.4199 30.9 13.4199H32.2L32.66 11.7099C32.13 11.7099 31.84 11.6699 31.79 11.5899C31.74 11.4999 31.8 11.1199 31.99 10.4199L33.51 4.7499H34.38L34.83 3.0699H33.96L34.4073 1.4099H34.41V1.3999ZM36.09 13.4L38.93 2.80998H35.61L32.77 13.4H36.09ZM39.1 2.15998L39.55 0.47998H36.23L35.78 2.15998H39.1ZM43.37 2.81012L43.3667 2.82012H40.09L37.25 13.4101H40.47L42.39 6.25012C42.6 5.45012 42.76 4.96012 42.87 4.78012C42.98 4.59012 43.15 4.50012 43.38 4.50012C43.59 4.50012 43.71 4.58012 43.71 4.74012C43.71 4.90012 43.62 5.34012 43.42 6.07012L41.46 13.4001H44.68L46.67 5.98012C46.92 5.06012 47.05 4.40012 47.05 4.00012C47.06 3.60012 46.92 3.27012 46.64 3.01012C46.36 2.75012 45.94 2.62012 45.39 2.62012C44.95 2.62012 44.53 2.72012 44.14 2.91012C43.75 3.11012 43.39 3.40012 43.05 3.79012L43.3667 2.82012H43.37V2.81012ZM55.9573 2.82012L55.96 2.81012V2.82012H55.9573ZM52.96 2.82012H55.9573L53.78 10.9701C53.49 12.0701 53.27 12.7801 53.13 13.1001C52.99 13.4201 52.72 13.7601 52.32 14.1201C51.92 14.4801 51.41 14.7501 50.81 14.9401C50.21 15.1301 49.49 15.2201 48.66 15.2201C47.63 15.2201 46.85 15.0501 46.33 14.7001C45.8 14.3501 45.66 13.6701 45.91 12.6501H49.04C48.91 13.1201 49.02 13.3501 49.36 13.3501C49.61 13.3501 49.79 13.2801 49.9 13.1301C50.01 12.9801 50.14 12.6901 50.26 12.2301L50.47 11.4301C50.13 11.6801 49.78 11.8701 49.44 12.0001C49.1 12.1301 48.76 12.1901 48.43 12.1901C47.85 12.1901 47.4 12.0701 47.09 11.8401C46.78 11.6101 46.6 11.3001 46.57 10.9201C46.53 10.5401 46.61 10.0001 46.8 9.30012L47.83 5.45012C48.1 4.44012 48.47 3.72012 48.95 3.28012C49.43 2.84012 50.04 2.62012 50.78 2.62012C51.18 2.62012 51.53 2.70012 51.82 2.87012C52.11 3.04012 52.34 3.28012 52.51 3.62012L52.96 2.82012ZM52.14 4.69012C52.16 4.83012 52.11 5.14012 51.98 5.62012H51.97L51.09 8.90012C50.93 9.50012 50.79 9.89012 50.68 10.0601C50.57 10.2301 50.41 10.3101 50.2 10.3101C50.01 10.3101 49.91 10.2401 49.89 10.1001C49.87 9.96012 49.92 9.65012 50.05 9.18012L51 5.62012C51.12 5.17012 51.24 4.87012 51.36 4.72012C51.48 4.57012 51.63 4.49012 51.82 4.49012C52.01 4.49012 52.12 4.56012 52.14 4.69012ZM60.71 0.47998H66.31L65.62 3.05998H63.38L62.72 5.50998H64.82L64.16 7.96998H62.06L61.3 10.81H63.77L63.08 13.4H57.25L60.71 0.47998ZM70.53 7.87006L73.17 2.81006H70.31C69.97 3.46006 69.4 4.69006 68.61 6.50006C68.66 6.20006 68.75 4.97006 68.9 2.81006H66.2L66.23 7.87006L63.36 13.4001H66.06C66.62 12.2501 67.18 11.0501 67.73 9.79006C67.62 10.8001 67.53 12.0001 67.47 13.4001H70.6L70.53 7.87006ZM79.7 8.2901H75.53L74.92 10.5801C74.79 11.0601 74.74 11.3701 74.78 11.5001C74.81 11.6401 74.93 11.7101 75.12 11.7101C75.37 11.7101 75.55 11.6201 75.68 11.4301C75.81 11.2501 75.95 10.8901 76.09 10.3601L76.46 8.9601H79.52L79.31 9.7401C79.14 10.3901 78.96 10.9001 78.78 11.2501C78.6 11.6001 78.31 11.9801 77.9 12.3701C77.49 12.7701 77.03 13.0701 76.51 13.2701C75.99 13.4701 75.38 13.5701 74.68 13.5701C73.98 13.5701 73.42 13.4701 72.96 13.2801C72.5 13.0901 72.16 12.8101 71.96 12.4701C71.76 12.1301 71.66 11.7501 71.66 11.3401C71.66 10.9301 71.76 10.3301 71.97 9.5401L72.8 6.4501C73.05 5.5301 73.37 4.7901 73.76 4.2601C74.15 3.7201 74.67 3.3201 75.32 3.0301C75.96 2.7401 76.66 2.6001 77.4 2.6001C78.3 2.6001 79 2.7701 79.5 3.1201C80 3.4601 80.29 3.9201 80.37 4.4801C80.46 5.0501 80.37 5.8401 80.09 6.8701L79.71 8.2701L79.7 8.2901ZM76.93 6.5701L77.14 5.8001C77.29 5.2501 77.35 4.9001 77.34 4.7401C77.32 4.5801 77.23 4.5001 77.04 4.5001C76.82 4.5001 76.66 4.5701 76.57 4.7001C76.48 4.8401 76.36 5.2001 76.2 5.8001L75.99 6.5701H76.93ZM85.4464 2.82012L85.45 2.81012L85.46 2.82012H85.4464ZM85.4464 2.82012L84.95 4.20012C85.69 3.20012 86.51 2.67012 87.41 2.62012L86.41 6.35012C85.82 6.35012 85.37 6.43012 85.05 6.59012C84.73 6.75012 84.5 6.97012 84.36 7.26012C84.22 7.55012 84.01 8.20012 83.74 9.23012L82.62 13.4101H79.4L82.24 2.82012H85.4464ZM94.1299 6.80984H91.0899L91.4199 5.58984C91.5299 5.16984 91.5799 4.87984 91.5499 4.71984C91.52 4.56984 91.41 4.48985 91.2299 4.48985C91.0499 4.48985 90.8999 4.55984 90.7999 4.68984C90.7 4.81984 90.59 5.11985 90.4599 5.57985L89.1199 10.5798C89.02 10.9598 88.99 11.2398 89.0399 11.4298C89.09 11.6198 89.1999 11.7098 89.3899 11.7098C89.6099 11.7098 89.78 11.6098 89.91 11.4098C90.04 11.2098 90.1799 10.8398 90.3299 10.2898L90.6699 9.02984H93.5399C93.31 9.87984 93.1099 10.5098 92.9399 10.9298C92.77 11.3498 92.4799 11.7898 92.0599 12.2298C91.6399 12.6698 91.16 13.0098 90.6099 13.2298C90.0699 13.4598 89.4399 13.5698 88.7199 13.5698C87.81 13.5698 87.13 13.4098 86.6799 13.0998C86.2299 12.7898 85.9699 12.3498 85.8999 11.7898C85.8299 11.2298 85.9299 10.4298 86.2099 9.39985L87.0199 6.38984C87.2599 5.48984 87.5299 4.80984 87.8399 4.35984C88.1399 3.89984 88.6399 3.48984 89.3299 3.12984C90.02 2.76984 90.7799 2.58984 91.6299 2.58984C92.4799 2.58984 93.1399 2.76984 93.6399 3.12984C94.1399 3.48984 94.42 3.93984 94.4699 4.47984C94.52 5.01984 94.41 5.78984 94.1499 6.78984L94.1299 6.80984ZM96.6301 13.4L99.4701 2.80998H96.1501L93.3101 13.4H96.6301ZM99.6401 2.15998L100.09 0.47998H96.7701L96.3201 2.15998H99.6401ZM106.31 6.18986H103.45L103.6 5.61986C103.73 5.12986 103.79 4.81986 103.77 4.68986C103.75 4.55986 103.63 4.48986 103.4 4.48986C103.22 4.48986 103.07 4.54986 102.95 4.66986C102.83 4.78986 102.73 4.96986 102.67 5.20986C102.58 5.52986 102.54 5.76986 102.55 5.91986C102.55 6.06986 102.65 6.23986 102.82 6.41986C103 6.59986 103.39 6.85986 104 7.20986C104.81 7.66986 105.31 8.09986 105.5 8.49986C105.68 8.89986 105.67 9.48986 105.47 10.2599C105.24 11.1199 104.95 11.7699 104.61 12.2099C104.27 12.6499 103.8 12.9899 103.22 13.2199C102.63 13.4599 101.97 13.5699 101.23 13.5699C100.41 13.5699 99.74 13.4399 99.23 13.1899C98.72 12.9299 98.41 12.5899 98.31 12.1499C98.21 11.7099 98.28 11.0599 98.51 10.1699L98.65 9.65986H101.51L101.33 10.3299C101.18 10.8999 101.12 11.2699 101.14 11.4399C101.17 11.6099 101.29 11.6999 101.5 11.6999C101.73 11.6999 101.9 11.6399 102.02 11.5299C102.14 11.4199 102.25 11.1799 102.35 10.8099C102.49 10.2999 102.51 9.98986 102.43 9.85986C102.34 9.72986 101.82 9.35986 100.86 8.72986C100.06 8.19986 99.61 7.71986 99.52 7.27986C99.43 6.84986 99.46 6.32986 99.62 5.73986C99.85 4.88986 100.13 4.26986 100.46 3.86986C100.79 3.46986 101.25 3.15986 101.85 2.93986C102.44 2.71986 103.09 2.60986 103.8 2.60986C104.51 2.60986 105.07 2.69986 105.52 2.87986C105.96 3.05986 106.28 3.28986 106.46 3.58986C106.65 3.87986 106.73 4.14986 106.72 4.39986C106.71 4.64986 106.63 5.03986 106.49 5.56986L106.32 6.17986L106.31 6.18986ZM109.99 8.2901H114.16L114.17 8.2701L114.55 6.8701C114.83 5.8401 114.92 5.0501 114.83 4.4801C114.75 3.9201 114.46 3.4601 113.96 3.1201C113.46 2.7701 112.76 2.6001 111.86 2.6001C111.12 2.6001 110.42 2.7401 109.78 3.0301C109.13 3.3201 108.61 3.7201 108.22 4.2601C107.83 4.7901 107.51 5.5301 107.26 6.4501L106.43 9.5401C106.22 10.3301 106.12 10.9301 106.12 11.3401C106.12 11.7501 106.22 12.1301 106.42 12.4701C106.62 12.8101 106.96 13.0901 107.42 13.2801C107.88 13.4701 108.44 13.5701 109.14 13.5701C109.84 13.5701 110.45 13.4701 110.97 13.2701C111.49 13.0701 111.95 12.7701 112.36 12.3701C112.77 11.9801 113.06 11.6001 113.24 11.2501C113.42 10.9001 113.6 10.3901 113.77 9.7401L113.98 8.9601H110.92L110.55 10.3601C110.41 10.8901 110.27 11.2501 110.14 11.4301C110.01 11.6201 109.83 11.7101 109.58 11.7101C109.39 11.7101 109.27 11.6401 109.24 11.5001C109.2 11.3701 109.25 11.0601 109.38 10.5801L109.99 8.2901ZM111.6 5.8001L111.39 6.5701H110.45L110.66 5.8001C110.82 5.2001 110.94 4.8401 111.03 4.7001C111.12 4.5701 111.28 4.5001 111.5 4.5001C111.69 4.5001 111.78 4.5801 111.8 4.7401C111.81 4.9001 111.75 5.2501 111.6 5.8001Z" fill="url(#paint0_linear_1762_3006)"/>
<defs>
<linearGradient id="paint0_linear_1762_3006" x1="98.5364" y1="8.23993" x2="93.1258" y2="-14.614" gradientUnits="userSpaceOnUse">
<stop stop-color="#434054"/>
<stop offset="0.482007" stop-color="#777390"/>
<stop offset="0.883058" stop-color="#CBA6AF"/>
</linearGradient>
</defs>
</svg>
