<svg width="74" height="15" viewBox="0 0 74 15" fill="none" xmlns="http://www.w3.org/2000/svg">
<path fill-rule="evenodd" clip-rule="evenodd" d="M9.26996 0L8.57996 2.59H6.58996L3.81996 12.92H0.459961L3.21996 2.59H1.22996L1.91996 0H9.25996H9.26996ZM10.41 6.43H7.38999L7.57999 5.72C7.79999 4.9 8.05999 4.27 8.36999 3.82C8.67999 3.38 9.15999 2.98 9.81999 2.64C10.48 2.3 11.27 2.13 12.17 2.13C13.26 2.13 14.03 2.32 14.48 2.71C14.93 3.1 15.14 3.57 15.1 4.13C15.06 4.69 14.81 5.85 14.34 7.6L12.92 12.91H9.77999L10.03 11.97C9.72999 12.35 9.39999 12.63 9.03999 12.82C8.67999 13.01 8.27999 13.1 7.84999 13.1C7.28999 13.1 6.80999 12.94 6.41999 12.63C6.02999 12.31 5.97999 11.62 6.26999 10.55L6.49999 9.68001C6.70999 8.89001 6.97999 8.35001 7.30999 8.06001C7.63999 7.77001 8.34999 7.44 9.43999 7.05C10.61 6.63 11.25 6.36 11.36 6.21C11.47 6.07 11.59 5.77 11.71 5.33C11.86 4.78 11.91 4.42 11.88 4.25C11.84 4.08 11.73 4 11.54 4C11.32 4 11.17 4.07 11.08 4.21C10.99 4.35 10.86 4.72 10.71 5.31L10.41 6.42V6.43ZM9.88999 8.83C10.039 8.57168 10.4151 8.264 11.028 7.88734L10.45 10.06C10.3 10.59 10.19 10.92 10.09 11.04C9.99999 11.17 9.85999 11.23 9.64999 11.23C9.43999 11.23 9.31999 11.15 9.28999 10.99C9.25999 10.83 9.31999 10.48 9.46999 9.93001C9.59999 9.45001 9.73999 9.09 9.88999 8.83ZM21.37 6.55L23.81 2.33H23.8H21.09L19.26 5.42L20.71 0H17.49L14.03 12.92H17.25L18.49 8.3L18.26 12.92H21.37V6.55ZM30.51 7.81H26.34L25.73 10.1C25.6 10.58 25.55 10.89 25.59 11.03C25.62 11.17 25.74 11.24 25.93 11.24C26.18 11.24 26.36 11.15 26.5 10.96C26.63 10.78 26.77 10.42 26.91 9.9L27.28 8.5H30.34L30.13 9.28C29.95 9.93 29.78 10.44 29.6 10.79C29.42 11.14 29.13 11.52 28.72 11.91C28.31 12.31 27.85 12.61 27.33 12.81C26.81 13.01 26.2 13.11 25.5 13.11C24.8 13.11 24.24 13.01 23.78 12.81C23.31 12.61 22.98 12.34 22.78 12C22.58 11.66 22.48 11.28 22.48 10.87C22.48 10.46 22.58 9.86 22.79 9.07L23.62 5.98C23.87 5.05 24.19 4.32 24.58 3.79C24.97 3.25 25.49 2.85 26.14 2.56C26.78 2.27 27.48 2.13 28.22 2.13C29.12 2.13 29.82 2.3 30.32 2.64C30.82 2.98 31.11 3.44001 31.19 4.01C31.28 4.58001 31.19 5.37 30.91 6.4L30.53 7.8L30.51 7.81ZM27.74 6.09L27.95 5.32C28.1 4.77 28.16 4.42 28.15 4.26C28.13 4.10001 28.04 4.02 27.86 4.02C27.64 4.02 27.48 4.09 27.39 4.22C27.3 4.36 27.18 4.72001 27.02 5.32L26.81 6.09H27.74ZM31.7899 6.43H34.8099V6.42L35.1099 5.31C35.2599 4.72 35.3899 4.35 35.4799 4.21C35.5699 4.07 35.7199 4 35.9399 4C36.1299 4 36.2399 4.08 36.2799 4.25C36.3099 4.42 36.2599 4.78 36.1099 5.33C35.9899 5.77 35.8699 6.07 35.7599 6.21C35.6499 6.36 35.0099 6.63 33.8399 7.05C32.7499 7.44 32.0399 7.77001 31.7099 8.06001C31.3799 8.35001 31.1099 8.89001 30.8999 9.68001L30.6699 10.55C30.3799 11.62 30.4299 12.31 30.8199 12.63C31.2099 12.94 31.6899 13.1 32.2499 13.1C32.6799 13.1 33.0799 13.01 33.4399 12.82C33.7999 12.63 34.1299 12.35 34.4299 11.97L34.1799 12.91H37.3199L38.7399 7.6C39.2099 5.85 39.4599 4.69 39.4999 4.13C39.5399 3.57 39.3299 3.1 38.8799 2.71C38.4299 2.32 37.6599 2.13 36.5699 2.13C35.6699 2.13 34.8799 2.3 34.2199 2.64C33.5599 2.98 33.0799 3.38 32.7699 3.82C32.4599 4.27 32.1999 4.9 31.9799 5.72L31.7899 6.43ZM35.4279 7.88734C34.815 8.264 34.4389 8.57168 34.2899 8.83C34.1399 9.09 33.9999 9.45001 33.8699 9.93001C33.7199 10.48 33.6599 10.83 33.6899 10.99C33.7199 11.15 33.8399 11.23 34.0499 11.23C34.2599 11.23 34.3999 11.17 34.4899 11.04C34.5899 10.92 34.6999 10.59 34.8499 10.06L35.4279 7.88734ZM51.6899 2.33002L47.5699 12.92H44.0699C44.2299 11.63 44.4599 9.92002 44.7699 7.80002C44.4299 8.73002 44.0599 9.67002 43.6499 10.62L42.6799 12.92H39.1699L40.6399 2.33002H43.4199C43.3699 2.61002 43.0599 4.63002 42.4999 8.39002C42.6399 8.00002 43.4199 5.98002 44.8499 2.33002H47.5199L46.5499 8.39002C47.1299 6.62002 47.9199 4.60002 48.9099 2.33002H51.6899ZM50.9701 6.43H53.9901V6.42L54.2901 5.31C54.4401 4.72 54.5701 4.35 54.6601 4.21C54.7501 4.07 54.9001 4 55.1201 4C55.3101 4 55.4201 4.08 55.4601 4.25C55.4901 4.42 55.4401 4.78 55.2901 5.33C55.1701 5.77 55.0501 6.07 54.9401 6.21C54.8301 6.36 54.1901 6.63 53.0201 7.05C51.9301 7.44 51.2201 7.77001 50.8901 8.06001C50.5601 8.35001 50.2901 8.89001 50.0801 9.68001L49.8501 10.55C49.5601 11.62 49.6101 12.31 50.0001 12.63C50.3901 12.94 50.8701 13.1 51.4301 13.1C51.8601 13.1 52.2601 13.01 52.6201 12.82C52.9801 12.63 53.3101 12.35 53.6101 11.97L53.3601 12.91H56.5001L57.9201 7.6C58.3901 5.85 58.6401 4.69 58.6801 4.13C58.7201 3.57 58.5101 3.1 58.0601 2.71C57.6101 2.32 56.8401 2.13 55.7501 2.13C54.8501 2.13 54.0601 2.3 53.4001 2.64C52.7401 2.98 52.2601 3.38 51.9501 3.82C51.6401 4.27 51.3801 4.9 51.1601 5.72L50.9701 6.43ZM54.6081 7.88734C53.9952 8.264 53.6191 8.57168 53.4701 8.83C53.3201 9.09 53.1801 9.45001 53.0501 9.93001C52.9001 10.48 52.8401 10.83 52.8701 10.99C52.9001 11.15 53.0201 11.23 53.2301 11.23C53.4401 11.23 53.5801 11.17 53.6701 11.04C53.7701 10.92 53.8801 10.59 54.0301 10.06L54.6081 7.88734ZM67.1901 2.33L64.2201 9.99C63.7501 11.2 63.4101 12.03 63.1901 12.47C62.9701 12.91 62.7101 13.28 62.4101 13.56C62.1001 13.85 61.7301 14.06 61.2901 14.19C60.8501 14.33 60.1801 14.39 59.2801 14.39H57.3301L57.7801 12.7C58.2801 12.7 58.6101 12.67 58.7701 12.62C58.9301 12.57 59.0301 12.46 59.0801 12.28C59.1001 12.2 59.1401 11.82 59.1801 11.17L59.7901 2.31H62.7201L61.8601 9.46L64.2901 2.31H67.2101L67.1901 2.33ZM70.5799 5.71H73.4399V5.7L73.6099 5.09C73.7499 4.56001 73.8299 4.17 73.8399 3.92C73.8499 3.67 73.7699 3.4 73.5799 3.11C73.3999 2.81 73.0799 2.58 72.6399 2.4C72.1899 2.22 71.6299 2.13 70.9199 2.13C70.2099 2.13 69.5599 2.24 68.9699 2.46C68.3699 2.68 67.9099 2.99 67.5799 3.39C67.2499 3.79 66.9699 4.41001 66.7399 5.26C66.5799 5.85001 66.5499 6.37001 66.6399 6.8C66.7299 7.24001 67.1799 7.72001 67.9799 8.25C68.9399 8.87 69.4599 9.25 69.5499 9.38C69.6299 9.51 69.6099 9.82 69.4699 10.33C69.3699 10.69 69.2599 10.94 69.1399 11.05C69.0199 11.16 68.8499 11.22 68.6199 11.22C68.4099 11.22 68.2899 11.14 68.2599 10.97C68.2399 10.8 68.2999 10.43 68.4499 9.86L68.6299 9.19H65.7699L65.6299 9.7C65.3999 10.59 65.3299 11.24 65.4299 11.68C65.5299 12.12 65.8399 12.47 66.3499 12.72C66.8599 12.97 67.5299 13.1 68.3499 13.1C69.0899 13.1 69.7499 12.98 70.3399 12.74C70.9199 12.51 71.3899 12.17 71.7299 11.73C72.0699 11.29 72.3599 10.64 72.5899 9.78C72.7899 9.01 72.7999 8.43001 72.6199 8.02001C72.4299 7.62001 71.9299 7.19 71.1199 6.73C70.5099 6.38 70.1199 6.12 69.9399 5.94C69.7699 5.76 69.6699 5.59 69.6699 5.44C69.6599 5.29 69.6999 5.06 69.7899 4.73C69.8499 4.49001 69.9499 4.31 70.0699 4.19C70.1999 4.07 70.3499 4.01 70.5299 4.01C70.7599 4.01 70.8799 4.08 70.8999 4.21C70.9199 4.34 70.8599 4.65 70.7299 5.14L70.5799 5.71Z" fill="url(#paint0_linear_1786_2943)"/>
<defs>
<linearGradient id="paint0_linear_1786_2943" x1="63.354" y1="7.69364" x2="56.0765" y2="-12.8865" gradientUnits="userSpaceOnUse">
<stop stop-color="#434054"/>
<stop offset="0.482007" stop-color="#777390"/>
<stop offset="0.883058" stop-color="#CBA6AF"/>
</linearGradient>
</defs>
</svg>
