<svg width="47" height="15" viewBox="0 0 47 15" fill="none" xmlns="http://www.w3.org/2000/svg">
<path fill-rule="evenodd" clip-rule="evenodd" d="M8.40995 9.49998L10.72 0.869984V0.859985H7.35995L4.80995 10.38C4.63995 11.03 4.49995 11.44 4.38995 11.61C4.27995 11.78 4.11995 11.87 3.90995 11.87C3.71995 11.87 3.61995 11.79 3.59995 11.63C3.57995 11.47 3.64995 11.11 3.79995 10.55L6.39995 0.859985H3.03995L0.989954 8.49998C0.599954 9.95998 0.369951 10.91 0.299951 11.37C0.229951 11.83 0.289953 12.26 0.469953 12.67C0.649954 13.08 1.00995 13.42 1.52995 13.67C2.04995 13.92 2.69995 14.05 3.46995 14.05C4.16995 14.05 4.79995 13.95 5.36995 13.73C5.94995 13.51 6.43995 13.2 6.86995 12.78C7.28995 12.36 7.58995 11.96 7.75995 11.56C7.92995 11.17 8.14995 10.48 8.40995 9.49998ZM11.9199 13.79L15.3799 0.86998H12.0199L8.55994 13.79H11.9199ZM23.6299 0.869984L23.1899 2.50998C22.5199 2.50998 22.1299 2.53998 21.9899 2.59998C21.8499 2.65998 21.7499 2.82998 21.6699 3.11998L21.5799 3.44999H22.9399L22.4899 5.12999H21.7199L19.3999 13.79H16.1799L18.4999 5.12999H17.8399L18.2899 3.44999H18.9499C19.1399 2.74999 19.2799 2.28998 19.3999 2.04998C19.5099 1.81998 19.6899 1.60998 19.9199 1.41998C20.1599 1.23998 20.4599 1.09998 20.8299 0.999985C21.1999 0.899985 21.7399 0.859985 22.4599 0.859985H23.6399L23.6299 0.869984ZM24.0999 13.79L27.5599 0.86998H24.2399L20.7799 13.79H24.0999ZM34.3899 6.91998L33.6999 9.50998C33.4399 10.46 33.2099 11.16 32.9899 11.6C32.7799 12.04 32.4599 12.46 32.0399 12.85C31.6199 13.24 31.1399 13.52 30.5999 13.7C30.0599 13.88 29.4699 13.98 28.8299 13.98C28.1199 13.98 27.5299 13.9 27.0799 13.74C26.6299 13.58 26.3099 13.35 26.1199 13.03C25.9299 12.71 25.8399 12.33 25.8399 11.88C25.8399 11.43 25.9699 10.76 26.2099 9.85998L26.9399 7.14998C27.1999 6.16998 27.5199 5.39998 27.8799 4.83998C28.2399 4.28998 28.7399 3.83998 29.3899 3.50998C30.0299 3.17998 30.7899 3.00998 31.6499 3.00998C32.3699 3.00998 32.9699 3.11998 33.4299 3.32998C33.8899 3.53998 34.2199 3.82998 34.4099 4.16998C34.5999 4.50998 34.6999 4.86998 34.6999 5.23998C34.6999 5.60998 34.6099 6.16998 34.4099 6.91998H34.3899ZM31.3799 6.11998C31.5299 5.57998 31.5899 5.23998 31.5699 5.08998C31.5499 4.93998 31.4399 4.87998 31.2499 4.87998C31.0599 4.87998 30.9099 4.94998 30.8099 5.08998C30.7099 5.22998 30.5799 5.56998 30.4399 6.11998L29.1599 10.9C29.0299 11.4 28.9699 11.73 28.9899 11.88C29.0099 12.03 29.1199 12.11 29.2999 12.11C29.4799 12.11 29.6399 12.04 29.7399 11.9C29.8399 11.76 29.9499 11.46 30.0699 11.01L31.3799 6.12998V6.11998ZM46.8661 3.21998L46.8699 3.20998V3.21998H46.8661ZM46.8661 3.21998H44.0899C43.0999 5.48998 42.31 7.50998 41.7299 9.27998L42.6999 3.21998H40.0299C38.5999 6.86998 37.8199 8.88998 37.6799 9.27998C38.2399 5.51998 38.5499 3.49998 38.5999 3.21998H35.8199L34.3499 13.81H37.8599L38.8299 11.51C39.2399 10.56 39.6099 9.61998 39.9499 8.68998C39.6399 10.8 39.4099 12.51 39.2499 13.8H42.7499L46.8661 3.21998Z" fill="url(#paint0_linear_1729_2948)"/>
<defs>
<linearGradient id="paint0_linear_1729_2948" x1="40.2107" y1="7.91203" x2="31.617" y2="-8.92437" gradientUnits="userSpaceOnUse">
<stop stop-color="#434054"/>
<stop offset="0.482007" stop-color="#777390"/>
<stop offset="0.883058" stop-color="#CBA6AF"/>
</linearGradient>
</defs>
</svg>
