<svg width="142" height="16" viewBox="0 0 142 16" fill="none" xmlns="http://www.w3.org/2000/svg">
<path fill-rule="evenodd" clip-rule="evenodd" d="M8.50004 9.58L10.81 0.950003V0.940002H7.45004L4.90004 10.46C4.73004 11.11 4.59004 11.52 4.48004 11.69C4.37004 11.86 4.21004 11.95 4.00004 11.95C3.81004 11.95 3.71004 11.87 3.69004 11.71C3.67004 11.55 3.74004 11.19 3.89004 10.63L6.49004 0.940002H3.13004L1.08004 8.58C0.690042 10.04 0.460039 10.99 0.390039 11.45C0.320039 11.91 0.380041 12.34 0.560041 12.75C0.750041 13.16 1.10004 13.5 1.62004 13.75C2.14004 14 2.79004 14.13 3.56004 14.13C4.25004 14.13 4.89004 14.02 5.46004 13.81C6.04004 13.59 6.53004 13.28 6.96004 12.86C7.38004 12.44 7.68004 12.04 7.85004 11.64C8.02004 11.25 8.24004 10.56 8.50004 9.58ZM14.3501 4.26L14.6701 3.28L14.6601 3.29H11.3801L8.54007 13.88H11.7601L13.6801 6.72C13.8901 5.92 14.0501 5.43 14.1601 5.25C14.2701 5.06 14.4401 4.97 14.6701 4.97C14.8801 4.97 15.0001 5.05 15.0001 5.21C15.0101 5.37 14.9201 5.81 14.7201 6.54L12.7601 13.87H15.9801L17.9701 6.45C18.2201 5.53 18.3501 4.87 18.3501 4.47C18.3601 4.07 18.2201 3.74 17.9401 3.48C17.6601 3.22 17.2401 3.09 16.6901 3.09C16.2501 3.09 15.8301 3.19 15.4401 3.38C15.0501 3.58 14.6901 3.87 14.3501 4.26ZM27.9 0.949997L27.8974 0.959995H24.6901L23.89 3.96C23.7 3.67 23.4501 3.45 23.1601 3.31C22.8701 3.16 22.5201 3.09 22.1201 3.09C21.6001 3.09 21.12 3.22 20.68 3.48C20.2401 3.74 19.9201 4.04 19.7301 4.38C19.5301 4.72 19.3301 5.3 19.11 6.11L17.78 11.07C17.57 11.85 17.4701 12.41 17.4801 12.76C17.4901 13.1 17.6401 13.41 17.9401 13.67C18.2301 13.93 18.63 14.06 19.13 14.06C19.5 14.06 19.8801 13.98 20.2601 13.82C20.6501 13.66 21.04 13.42 21.43 13.1L21.22 13.87H24.4401L27.8974 0.959995H27.9101L27.9 0.949997ZM23.34 5.95C23.44 5.56 23.48 5.3 23.45 5.17C23.42 5.04 23.31 4.97 23.11 4.97C22.9101 4.97 22.77 5.03 22.67 5.15C22.57 5.27 22.47 5.54 22.35 5.95L20.96 11.14C20.84 11.57 20.8001 11.85 20.8301 11.99C20.8601 12.13 20.96 12.19 21.14 12.19C21.35 12.19 21.5101 12.11 21.6201 11.96C21.7301 11.81 21.86 11.44 22.02 10.85L23.3301 5.95H23.34ZM30.0901 8.76H34.2601V8.77001L34.6401 7.37001C34.9301 6.34001 35.0201 5.55001 34.9301 4.98001C34.8501 4.41001 34.5601 3.95001 34.0601 3.61001C33.5601 3.27001 32.8601 3.10001 31.9601 3.10001C31.2201 3.10001 30.5301 3.25001 29.8801 3.53001C29.2301 3.82001 28.7101 4.23001 28.3201 4.76001C27.9301 5.29001 27.6101 6.02001 27.3601 6.95001L26.5301 10.04C26.3201 10.83 26.2201 11.43 26.2201 11.84C26.2201 12.25 26.3201 12.63 26.5201 12.97C26.7201 13.31 27.0601 13.59 27.5201 13.78C27.9801 13.97 28.5401 14.07 29.2401 14.07C29.9401 14.07 30.5501 13.97 31.0701 13.77C31.5901 13.57 32.0501 13.27 32.4601 12.87C32.8701 12.47 33.1601 12.09 33.3401 11.74C33.5201 11.39 33.6901 10.88 33.8701 10.23L34.0801 9.45001H31.0201L30.6501 10.85C30.5101 11.37 30.3701 11.73 30.2401 11.91C30.1101 12.1 29.9301 12.19 29.6801 12.19C29.4901 12.19 29.3701 12.12 29.3401 11.98C29.3001 11.84 29.3501 11.53 29.4801 11.05L30.0901 8.76ZM31.7001 6.27001L31.4901 7.04001H30.5601L30.7701 6.27001C30.9301 5.67001 31.0501 5.31001 31.1401 5.17001C31.2301 5.04001 31.3901 4.97001 31.6101 4.97001C31.7901 4.97001 31.8801 5.05 31.9001 5.21C31.9101 5.37 31.8501 5.72001 31.7001 6.27001ZM40.0101 3.28L40.0065 3.29H36.7901L33.9501 13.88H37.1701L38.2901 9.7C38.5601 8.67 38.7701 8.02 38.9101 7.73C39.0501 7.44 39.2801 7.22 39.6001 7.06C39.9301 6.9 40.3801 6.82 40.9701 6.82L41.9701 3.09C41.0601 3.14 40.2401 3.67 39.5101 4.67L40.0065 3.29H40.0101V3.28ZM45.4501 6.66001H48.3101L48.3301 6.64001L48.4901 6.03001C48.6301 5.50001 48.7101 5.11001 48.7201 4.86001C48.7301 4.61001 48.6501 4.34001 48.4601 4.05001C48.2801 3.75001 47.9601 3.52001 47.5201 3.34001C47.0701 3.16001 46.5101 3.07001 45.8001 3.07001C45.0901 3.07001 44.4401 3.18001 43.8501 3.40001C43.2501 3.62001 42.7901 3.93001 42.4601 4.33001C42.1301 4.73001 41.8501 5.35001 41.6201 6.20001C41.4601 6.79001 41.4301 7.31001 41.5201 7.74001C41.6101 8.17001 42.0601 8.66001 42.8601 9.19001C43.8201 9.81001 44.3401 10.19 44.4301 10.32C44.5101 10.45 44.4901 10.77 44.3501 11.27C44.2501 11.64 44.1401 11.88 44.0201 11.99C43.9001 12.1 43.7301 12.16 43.5001 12.16C43.2901 12.16 43.1701 12.07 43.1401 11.9C43.1101 11.73 43.1801 11.36 43.3301 10.79L43.5101 10.12H40.6501L40.5101 10.63C40.2801 11.51 40.2101 12.17 40.3101 12.61C40.4101 13.05 40.7201 13.39 41.2301 13.65C41.7401 13.9 42.4101 14.03 43.2301 14.03C43.9701 14.03 44.6301 13.92 45.2201 13.68C45.8001 13.45 46.2701 13.11 46.6101 12.67C46.9501 12.23 47.2401 11.58 47.4701 10.72C47.6701 9.95001 47.6801 9.36001 47.5001 8.96001C47.3101 8.56001 46.8101 8.13001 46.0001 7.67001C45.3901 7.32001 45.0001 7.06001 44.8201 6.88001C44.6501 6.70001 44.5501 6.53001 44.5501 6.38001C44.5401 6.23001 44.5801 5.99001 44.6701 5.67001C44.7301 5.43001 44.8301 5.25001 44.9501 5.13001C45.0701 5.01001 45.2201 4.95001 45.4001 4.95001C45.6301 4.95001 45.7501 5.02001 45.7701 5.15001C45.7901 5.28001 45.7301 5.59001 45.6001 6.08001L45.4501 6.66001ZM54.1001 1.87L54.0974 1.87999H50.8701L50.4201 3.54999H49.7301L49.2801 5.22999H49.9701L48.5301 10.61C48.2501 11.67 48.1001 12.34 48.0801 12.62C48.0601 12.91 48.1401 13.16 48.3201 13.38C48.5001 13.6 48.7401 13.74 49.0401 13.8C49.3401 13.86 49.86 13.89 50.59 13.89H51.8901L52.3501 12.18C51.8201 12.18 51.5301 12.14 51.4801 12.06C51.4301 11.97 51.4901 11.59 51.6801 10.89L53.2 5.21999H54.0701L54.52 3.54H53.6501L54.0974 1.87999H54.1001V1.87ZM54.07 7.38H57.09L57.39 6.27C57.54 5.68 57.67 5.31 57.76 5.17C57.85 5.03 58 4.96 58.22 4.96C58.41 4.96 58.52 5.04 58.56 5.21C58.59 5.38 58.54 5.74 58.39 6.29C58.27 6.73 58.15 7.03 58.04 7.17C57.93 7.32 57.29 7.58999 56.12 8.00999C55.03 8.39999 54.32 8.73 53.99 9.02C53.66 9.31 53.39 9.85 53.18 10.64L52.95 11.51C52.66 12.58 52.71 13.27 53.1 13.59C53.49 13.9 53.97 14.06 54.53 14.06C54.96 14.06 55.36 13.97 55.72 13.78C56.08 13.59 56.41 13.31 56.71 12.93L56.46 13.87H59.6L61.02 8.56C61.49 6.81 61.74 5.65 61.78 5.09C61.82 4.53 61.61 4.06 61.16 3.67C60.71 3.28 59.94 3.09 58.85 3.09C57.95 3.09 57.16 3.26 56.5 3.6C55.84 3.94 55.36 4.34 55.05 4.78C54.74 5.22 54.48 5.85 54.26 6.67L54.07 7.38ZM57.7081 8.83733C57.0952 9.21399 56.7191 9.52167 56.57 9.77999C56.42 10.04 56.28 10.4 56.15 10.88C56 11.43 55.94 11.78 55.97 11.94C56 12.1 56.12 12.18 56.33 12.18C56.53 12.18 56.68 12.12 56.77 11.99C56.86 11.87 56.98 11.54 57.13 11.01L57.7081 8.83733ZM66.8201 3.28L66.5001 4.26C66.8401 3.87 67.2001 3.58 67.5901 3.38C67.9801 3.19 68.4001 3.09 68.8401 3.09C69.3901 3.09 69.8101 3.22 70.0901 3.48C70.3701 3.74 70.5101 4.07 70.5001 4.47C70.5001 4.87 70.3701 5.53 70.1201 6.45L68.1301 13.87H64.9101L66.8701 6.54C67.0701 5.81 67.1601 5.37 67.1501 5.21C67.1501 5.05 67.0301 4.97 66.8201 4.97C66.5901 4.97 66.4201 5.06 66.3101 5.25C66.2001 5.43 66.0401 5.92 65.8301 6.72L63.9101 13.88H60.6901L63.5301 3.29H66.8101L66.8201 3.28ZM80.0474 0.959995L80.0501 0.949997L80.0601 0.959995H80.0474ZM80.0474 0.959995L76.5901 13.87H73.3701L73.5801 13.1C73.1901 13.42 72.8001 13.66 72.4101 13.82C72.0301 13.98 71.6501 14.06 71.2801 14.06C70.7801 14.06 70.3801 13.93 70.0901 13.67C69.7901 13.41 69.6401 13.1 69.6301 12.76C69.6201 12.41 69.7201 11.85 69.9301 11.07L71.2601 6.11C71.4801 5.3 71.6801 4.72 71.8801 4.38C72.0701 4.04 72.3901 3.74 72.8301 3.48C73.2701 3.22 73.7501 3.09 74.2701 3.09C74.6701 3.09 75.0201 3.16 75.3101 3.31C75.6001 3.45 75.8501 3.67 76.0401 3.96L76.8401 0.959995H80.0474ZM75.6001 5.17C75.6301 5.3 75.5901 5.56 75.4901 5.95H75.4801L74.1701 10.85C74.0101 11.44 73.8801 11.81 73.7701 11.96C73.6601 12.11 73.5001 12.19 73.2901 12.19C73.1101 12.19 73.0101 12.13 72.9801 11.99C72.9501 11.85 72.9901 11.57 73.1101 11.14L74.5001 5.95C74.6201 5.54 74.7201 5.27 74.8201 5.15C74.9201 5.03 75.0601 4.97 75.2601 4.97C75.4601 4.97 75.5701 5.04 75.6001 5.17ZM83.9 3.28L81.06 13.87H77.7401L80.5801 3.28H83.9ZM84.5201 0.949997L84.0701 2.63H80.7501L81.2 0.949997H84.5201ZM88.0101 4.26L88.3301 3.28L88.3201 3.29H85.0401L82.2001 13.88H85.4201L87.3401 6.72C87.5501 5.92 87.7101 5.43 87.8201 5.25C87.9301 5.06 88.1001 4.97 88.3301 4.97C88.5401 4.97 88.6601 5.05 88.6601 5.21C88.6701 5.37 88.5801 5.81 88.3801 6.54L86.4201 13.87H89.6401L91.6301 6.45C91.8801 5.53 92.0101 4.87 92.0101 4.47C92.0201 4.07 91.8801 3.74 91.6001 3.48C91.3201 3.22 90.9001 3.09 90.3501 3.09C89.9101 3.09 89.4901 3.19 89.1001 3.38C88.7101 3.58 88.3501 3.87 88.0101 4.26ZM100.92 3.28L98.73 11.43C98.44 12.53 98.22 13.24 98.08 13.56C97.94 13.88 97.6701 14.22 97.27 14.58C96.87 14.94 96.36 15.21 95.76 15.4C95.16 15.59 94.44 15.68 93.6001 15.68C92.5701 15.68 91.8 15.51 91.27 15.16C90.7401 14.81 90.6001 14.13 90.8501 13.11H93.98C93.86 13.58 93.96 13.81 94.3 13.81C94.55 13.81 94.73 13.74 94.84 13.6C94.96 13.46 95.08 13.15 95.2 12.7L95.41 11.9C95.07 12.15 94.72 12.34 94.38 12.47C94.04 12.6 93.7 12.66 93.37 12.66C92.79 12.66 92.34 12.54 92.03 12.31C91.72 12.08 91.54 11.77 91.51 11.39C91.47 11.01 91.55 10.47 91.7401 9.77L92.77 5.92C93.04 4.92 93.41 4.19 93.89 3.75C94.37 3.31 94.98 3.09 95.72 3.09C96.12 3.09 96.47 3.17 96.76 3.34C97.05 3.51 97.28 3.75 97.45 4.08L97.9 3.28H100.9H100.92ZM96.94 6.09C97.07 5.61 97.12 5.3 97.1001 5.17C97.08 5.04 96.97 4.97 96.78 4.97C96.59 4.97 96.4401 5.05 96.3201 5.2C96.2 5.35 96.0801 5.65 95.9601 6.1L95.01 9.66C94.88 10.13 94.83 10.44 94.8501 10.58C94.87 10.72 94.97 10.79 95.16 10.79C95.37 10.79 95.53 10.71 95.64 10.54C95.75 10.37 95.88 9.98 96.05 9.38L96.93 6.1L96.94 6.09ZM111 9.58L113.31 0.950003V0.940002H109.95L107.4 10.46C107.23 11.11 107.09 11.52 106.98 11.69C106.87 11.86 106.71 11.95 106.5 11.95C106.31 11.95 106.21 11.87 106.19 11.71C106.17 11.55 106.24 11.19 106.39 10.63L108.99 0.940002H105.63L103.58 8.58C103.19 10.04 102.96 10.99 102.89 11.45C102.82 11.91 102.88 12.34 103.06 12.75C103.25 13.16 103.6 13.5 104.12 13.75C104.64 14 105.29 14.13 106.06 14.13C106.75 14.13 107.39 14.02 107.96 13.81C108.54 13.59 109.03 13.28 109.46 12.86C109.88 12.44 110.18 12.04 110.35 11.64C110.52 11.25 110.74 10.56 111 9.58ZM119.57 6.66001H116.71L116.86 6.08001C116.99 5.59001 117.05 5.28001 117.03 5.15001C117.01 5.02001 116.89 4.95001 116.66 4.95001C116.48 4.95001 116.33 5.01001 116.21 5.13001C116.09 5.25001 115.99 5.43001 115.93 5.67001C115.84 5.99001 115.8 6.23001 115.81 6.38001C115.81 6.53001 115.91 6.70001 116.08 6.88001C116.26 7.06001 116.65 7.32001 117.26 7.67001C118.07 8.13001 118.57 8.56001 118.76 8.96001C118.94 9.36001 118.93 9.95001 118.73 10.72C118.5 11.58 118.21 12.23 117.87 12.67C117.53 13.11 117.06 13.45 116.48 13.68C115.89 13.92 115.23 14.03 114.49 14.03C113.67 14.03 113 13.9 112.49 13.65C111.98 13.39 111.67 13.05 111.57 12.61C111.47 12.17 111.54 11.51 111.77 10.63L111.91 10.12H114.77L114.59 10.79C114.44 11.36 114.37 11.73 114.4 11.9C114.43 12.07 114.55 12.16 114.76 12.16C114.99 12.16 115.16 12.1 115.28 11.99C115.4 11.88 115.51 11.64 115.61 11.27C115.75 10.77 115.77 10.45 115.69 10.32C115.6 10.19 115.08 9.81001 114.12 9.19001C113.32 8.66001 112.87 8.17001 112.78 7.74001C112.69 7.31001 112.72 6.79001 112.88 6.20001C113.11 5.35001 113.39 4.73001 113.72 4.33001C114.05 3.93001 114.51 3.62001 115.11 3.40001C115.7 3.18001 116.35 3.07001 117.06 3.07001C117.77 3.07001 118.33 3.16001 118.78 3.34001C119.22 3.52001 119.54 3.75001 119.72 4.05001C119.91 4.34001 119.99 4.61001 119.98 4.86001C119.97 5.11001 119.89 5.50001 119.75 6.03001L119.59 6.64001L119.57 6.66001ZM123.25 8.76H127.42V8.77001L127.8 7.37001C128.09 6.34001 128.18 5.55001 128.09 4.98001C128.01 4.41001 127.72 3.95001 127.22 3.61001C126.72 3.27001 126.02 3.10001 125.12 3.10001C124.38 3.10001 123.69 3.25001 123.04 3.53001C122.39 3.82001 121.87 4.23001 121.48 4.76001C121.09 5.29001 120.77 6.02001 120.52 6.95001L119.69 10.04C119.48 10.83 119.38 11.43 119.38 11.84C119.38 12.25 119.48 12.63 119.68 12.97C119.88 13.31 120.22 13.59 120.68 13.78C121.14 13.97 121.7 14.07 122.4 14.07C123.1 14.07 123.71 13.97 124.23 13.77C124.75 13.57 125.21 13.27 125.62 12.87C126.03 12.47 126.32 12.09 126.5 11.74C126.68 11.39 126.85 10.88 127.03 10.23L127.24 9.45001H124.18L123.81 10.85C123.67 11.37 123.53 11.73 123.4 11.91C123.27 12.1 123.09 12.19 122.84 12.19C122.65 12.19 122.53 12.12 122.5 11.98C122.46 11.84 122.51 11.53 122.64 11.05L123.25 8.76ZM124.86 6.27001L124.65 7.04001H123.72L123.93 6.27001C124.09 5.67001 124.21 5.31001 124.3 5.17001C124.39 5.04001 124.55 4.97001 124.77 4.97001C124.95 4.97001 125.04 5.05 125.06 5.21C125.07 5.37 125.01 5.72001 124.86 6.27001ZM133.16 3.28L133.156 3.29H129.94L127.1 13.88H130.32L131.44 9.7C131.71 8.67 131.92 8.02 132.06 7.73C132.2 7.44 132.43 7.22 132.75 7.06C133.08 6.9 133.53 6.82 134.12 6.82L135.12 3.09C134.21 3.14 133.39 3.67 132.66 4.67L133.156 3.29H133.16V3.28ZM138.6 6.66001H141.46L141.48 6.64001L141.64 6.03001C141.78 5.50001 141.86 5.11001 141.87 4.86001C141.88 4.61001 141.8 4.34001 141.61 4.05001C141.43 3.75001 141.11 3.52001 140.67 3.34001C140.22 3.16001 139.66 3.07001 138.95 3.07001C138.24 3.07001 137.59 3.18001 137 3.40001C136.4 3.62001 135.94 3.93001 135.61 4.33001C135.28 4.73001 135 5.35001 134.77 6.20001C134.61 6.79001 134.58 7.31001 134.67 7.74001C134.76 8.17001 135.21 8.66001 136.01 9.19001C136.97 9.81001 137.49 10.19 137.58 10.32C137.66 10.45 137.64 10.77 137.5 11.27C137.4 11.64 137.29 11.88 137.17 11.99C137.05 12.1 136.88 12.16 136.65 12.16C136.44 12.16 136.32 12.07 136.29 11.9C136.26 11.73 136.33 11.36 136.48 10.79L136.66 10.12H133.8L133.66 10.63C133.43 11.51 133.36 12.17 133.46 12.61C133.56 13.05 133.87 13.39 134.38 13.65C134.89 13.9 135.56 14.03 136.38 14.03C137.12 14.03 137.78 13.92 138.37 13.68C138.95 13.45 139.42 13.11 139.76 12.67C140.1 12.23 140.39 11.58 140.62 10.72C140.82 9.95001 140.83 9.36001 140.65 8.96001C140.46 8.56001 139.96 8.13001 139.15 7.67001C138.54 7.32001 138.15 7.06001 137.97 6.88001C137.8 6.70001 137.7 6.53001 137.7 6.38001C137.69 6.23001 137.73 5.99001 137.82 5.67001C137.88 5.43001 137.98 5.25001 138.1 5.13001C138.22 5.01001 138.37 4.95001 138.55 4.95001C138.78 4.95001 138.9 5.02001 138.92 5.15001C138.94 5.28001 138.88 5.59001 138.75 6.08001L138.6 6.66001Z" fill="url(#paint0_linear_1729_2929)"/>
<defs>
<linearGradient id="paint0_linear_1729_2929" x1="121.648" y1="8.82075" x2="117.345" y2="-14.0877" gradientUnits="userSpaceOnUse">
<stop stop-color="#434054"/>
<stop offset="0.482007" stop-color="#777390"/>
<stop offset="0.883058" stop-color="#CBA6AF"/>
</linearGradient>
</defs>
</svg>
